<svg width="60" height="61" viewBox="0 0 60 61" fill="none" xmlns="http://www.w3.org/2000/svg">
<rect x="0.5" y="0.522949" width="59" height="59" rx="29.5" fill="#FFCC47"/>
<rect x="0.5" y="0.522949" width="59" height="59" rx="29.5" stroke="black"/>
<g clip-path="url(#clip0_46_809)">
<path fill-rule="evenodd" clip-rule="evenodd" d="M16.169 29.464C24.0678 25.9158 29.3478 23.6225 32.0088 22.4975C39.5275 19.2955 41.0903 18.733 42.1041 18.6897C42.3153 18.6897 42.8222 18.733 43.1601 18.9926C43.4135 19.2089 43.498 19.5118 43.5402 19.7282C43.5825 19.9445 43.6247 20.4205 43.5825 20.8099C43.1601 25.1803 41.4283 35.868 40.499 40.7576C40.1188 42.8346 39.3585 43.5269 38.6404 43.6134C37.0776 43.7432 35.8526 42.5317 34.332 41.5364C31.9666 39.9354 30.6149 38.9402 28.2918 37.3825C25.6307 35.5651 27.3625 34.5699 28.8831 32.9689C29.2633 32.5362 36.2328 26.0889 36.3595 25.4831C36.3595 25.3966 36.4018 25.137 36.2328 25.0072C36.0638 24.8774 35.8526 24.9206 35.6837 24.9639C35.4302 25.0072 31.6287 27.6034 24.2368 32.7093C23.1386 33.4882 22.167 33.8343 21.28 33.8343C20.3085 33.8343 18.45 33.2718 17.0561 32.7958C15.3665 32.2333 14.0148 31.9304 14.1415 30.9785C14.226 30.5025 14.9018 29.9833 16.169 29.464Z" fill="#130C0E"/>
</g>
<defs>
<clipPath id="clip0_46_809">
<rect width="34" height="34" fill="white" transform="translate(13 13.0229)"/>
</clipPath>
</defs>
</svg>
