<svg width="60" height="61" viewBox="0 0 60 61" fill="none" xmlns="http://www.w3.org/2000/svg">
<rect x="0.5" y="0.522949" width="59" height="59" rx="29.5" fill="#FFCC47"/>
<rect x="0.5" y="0.522949" width="59" height="59" rx="29.5" stroke="black"/>
<g clip-path="url(#clip0_113_651)">
<path d="M45 30.023C45 21.7388 38.2843 15.023 30 15.023C21.7157 15.023 15 21.7388 15 30.023C15 37.51 20.4853 43.7155 27.6562 44.8408V34.359H23.8477V30.023H27.6562V26.7184C27.6562 22.959 29.8956 20.8824 33.322 20.8824C34.9631 20.8824 36.6797 21.1754 36.6797 21.1754V24.8668H34.7882C32.9249 24.8668 32.3438 26.0231 32.3438 27.2093V30.023H36.5039L35.8389 34.359H32.3438V44.8408C39.5147 43.7155 45 37.51 45 30.023Z" fill="#100F0D"/>
<path d="M35.8389 34.3589L36.5039 30.0229H32.3438V27.2092C32.3438 26.023 32.9249 24.8667 34.7882 24.8667H36.6797V21.1753C36.6797 21.1753 34.9631 20.8823 33.322 20.8823C29.8956 20.8823 27.6563 22.9589 27.6563 26.7183V30.0229H23.8477V34.3589H27.6563V44.8407C28.4199 44.9605 29.2027 45.0229 30 45.0229C30.7973 45.0229 31.5801 44.9605 32.3438 44.8407V34.3589H35.8389Z" fill="white"/>
</g>
<defs>
<clipPath id="clip0_113_651">
<rect width="30" height="30" fill="white" transform="translate(15 15.0229)"/>
</clipPath>
</defs>
</svg>
