<svg width="51" height="51" viewBox="0 0 51 51" fill="none" xmlns="http://www.w3.org/2000/svg">
<path d="M25.0195 50.039C38.8374 50.039 50.039 38.8374 50.039 25.0195C50.039 11.2016 38.8374 0 25.0195 0C11.2016 0 0 11.2016 0 25.0195C0 38.8374 11.2016 50.039 25.0195 50.039Z" fill="url(#paint0_linear_46_264)"/>
<path fill-rule="evenodd" clip-rule="evenodd" d="M11.3016 24.7468C18.5892 21.5512 23.4606 19.4857 25.9157 18.4724C32.8526 15.5886 34.2945 15.0819 35.2298 15.043C35.4247 15.043 35.8924 15.0819 36.2041 15.3158C36.438 15.5106 36.5159 15.7834 36.5549 15.9783C36.5938 16.1731 36.6328 16.6018 36.5938 16.9526C36.2041 20.8886 34.6063 30.5145 33.7489 34.9183C33.3982 36.7889 32.6967 37.4124 32.0342 37.4904C30.5923 37.6073 29.4621 36.5161 28.0592 35.6197C25.8768 34.1778 24.6297 33.2815 22.4863 31.8785C20.0311 30.2417 21.6289 29.3454 23.0319 27.9035C23.3826 27.5137 29.8129 21.707 29.9298 21.1614C29.9298 21.0835 29.9687 20.8497 29.8129 20.7328C29.657 20.6158 29.4621 20.6548 29.3062 20.6938C29.0724 20.7328 25.565 23.071 18.745 27.6696C17.7318 28.3711 16.8355 28.6829 16.0171 28.6829C15.1207 28.6829 13.406 28.1762 12.12 27.7476C10.5611 27.2409 9.31403 26.9681 9.43094 26.1108C9.50888 25.6821 10.1324 25.2144 11.3016 24.7468Z" fill="white"/>
<defs>
<linearGradient id="paint0_linear_46_264" x1="0" y1="25.0014" x2="50.0028" y2="25.0014" gradientUnits="userSpaceOnUse">
<stop stop-color="#EF771D"/>
<stop offset="0.0001" stop-color="#EF771D"/>
</linearGradient>
</defs>
</svg>
