<svg width="265" height="190" viewBox="0 0 265 190" fill="none" xmlns="http://www.w3.org/2000/svg">
<path fill-rule="evenodd" clip-rule="evenodd" d="M166.208 17.1381C169.988 16.0368 173.559 14.9963 174.397 15.4131C175.296 15.8598 175.312 18.5452 175.328 21.2434C175.344 23.941 175.36 26.6514 176.258 27.1498C176.885 27.4979 180.287 27.3839 184.55 27.241C192.498 26.9747 203.442 26.6079 205.001 28.9463C206.497 31.1906 202.853 38.3417 199.906 44.1235C198.136 47.5975 196.617 50.5771 196.617 51.7009C196.617 53.1979 199.986 56.5662 203.354 59.9344C206.722 63.3027 210.091 66.671 210.091 68.168C210.091 70.1311 206.358 73.5101 203.112 76.4482C201.408 77.9912 199.838 79.4126 199.013 80.4435C197.649 82.1485 201.431 88.9994 204.94 95.3565C207.593 100.163 210.091 104.687 210.091 106.492C210.091 109.517 204.786 112.855 200.597 115.491C198.982 116.507 197.533 117.419 196.617 118.168C194.897 119.576 195.219 123.68 195.535 127.706C195.824 131.386 196.108 135.002 194.821 136.432C192.126 139.426 175.959 132.839 172.665 130.743C171.936 130.279 168.837 131.667 165.442 133.189C164.551 133.588 163.639 133.997 162.744 134.384C163.711 143.738 165.298 157.31 166.433 158.174C167.267 158.808 170.93 158.828 174.646 158.848C178.687 158.869 182.79 158.891 183.38 159.706C183.817 160.308 184.447 161.719 185.163 163.32C186.303 165.873 187.66 168.91 188.79 169.921C190.629 171.565 199.451 177.562 202.053 176.742C203.743 176.209 205.192 171.961 206.334 168.613C206.95 166.808 207.476 165.264 207.903 164.705C209.122 163.112 218.141 155.591 223.653 155.063C229.165 154.535 262.684 174.467 262.684 174.467V185.457C262.684 185.457 243.617 175.615 241.97 174.467C241.899 174.417 241.808 174.353 241.701 174.278C239.335 172.616 228.644 165.107 225.51 166.71C223.699 167.637 219.244 172.53 215.215 176.954C211.958 180.531 208.98 183.802 207.903 184.423C205.494 185.813 199.416 187.84 195.81 187.465C193.837 187.259 189.07 182.375 184.606 177.804C180.913 174.02 177.427 170.45 175.906 169.921C174.124 169.301 170.441 169.601 167.011 169.88C163.975 170.127 161.137 170.357 159.991 169.921C157.972 169.152 156.121 164.738 154.95 161.945C154.704 161.358 154.488 160.842 154.307 160.447C153.629 158.972 152.076 144.73 151.068 134.913C148.532 133.94 145.534 132.648 142.846 131.49C139.179 129.91 136.089 128.579 135.539 128.647C134.52 128.775 133.284 130.204 131.9 131.803C130.032 133.962 127.895 136.432 125.659 136.432C121.767 136.432 110.39 126.252 110.39 126.252C110.39 126.252 97.8146 136.432 95.12 136.432C93.7895 136.432 90.6973 135.522 87.6241 134.617C84.4732 133.69 81.3422 132.768 80.1499 132.839C79.1344 132.9 76.9911 134.252 74.6652 135.719C71.5963 137.655 68.2096 139.791 66.6767 139.426C65.3294 139.105 65.3294 134.032 65.3294 128.919C65.3294 123.806 65.3294 118.652 63.9821 118.168C62.7225 117.716 58.1236 119.04 53.278 120.436C47.7573 122.025 41.9164 123.707 40.3293 122.959C38.2847 121.994 38.6122 112.436 38.8332 105.985C38.9343 103.034 39.0132 100.733 38.8323 100.204C38.5533 99.3887 33.6353 100.107 28.5212 100.855C23.0679 101.652 17.3916 102.481 16.8787 101.518C16.3682 100.56 18.8063 93.8617 21.2027 87.2785C23.4712 81.0463 25.7024 74.9169 25.3591 73.8567C25.0732 72.9737 21.2512 71.2334 16.7788 69.197C10.209 66.2056 2.2356 62.5751 2.00574 60.0841C1.77472 57.5808 8.99402 50.352 14.8994 44.4389C18.8704 40.4627 22.2473 37.0814 22.3651 36.1319C22.5118 34.9501 20.1195 32.3918 17.7641 29.8729C15.4129 27.3586 13.0986 24.8837 13.383 23.8564C13.7543 22.5155 20.6696 21.2778 26.0006 20.3237C28.8452 19.8146 31.2386 19.3862 31.946 19.066C32.9551 18.6091 32.9625 16.1069 32.9702 13.4781C32.978 10.8107 32.9863 8.01301 34.0418 7.08985C35.4106 5.89272 45.2219 7.7919 52.7728 9.25353C56.7831 10.0298 60.1559 10.6827 61.2875 10.6827C62.8517 10.6827 66.9198 8.68629 71.1545 6.60808C75.7513 4.35224 80.5444 2 82.5451 2C84.625 2 88.9047 4.5424 92.8324 6.87571C96.1632 8.85438 99.2408 10.6827 100.509 10.6827C101.744 10.6827 105.634 8.94886 109.936 7.03079C115.262 4.65655 121.221 2 123.563 2C125.864 2 129.199 4.56238 132.246 6.90314C134.808 8.87124 137.166 10.6827 138.533 10.6827C139.815 10.6827 142.131 9.82812 144.552 8.93465C147.786 7.74131 151.207 6.47856 152.605 7.08985C153.889 7.65113 154.251 10.5785 154.601 13.4143C154.918 15.9793 155.226 18.4694 156.198 19.066C157.29 19.736 161.885 18.3974 166.208 17.1381Z" fill="white"/>
<path d="M174.397 15.4131L173.72 16.776V16.776L174.397 15.4131ZM166.208 17.1381L165.782 15.6767L166.208 17.1381ZM175.328 21.2434L173.806 21.2525V21.2524L175.328 21.2434ZM176.258 27.1498L176.997 25.8189V25.8189L176.258 27.1498ZM184.55 27.241L184.499 25.7197L184.55 27.241ZM205.001 28.9463L206.267 28.1019V28.1019L205.001 28.9463ZM199.906 44.1235L201.263 44.8146L199.906 44.1235ZM203.112 76.4482L202.091 75.3198L203.112 76.4482ZM199.013 80.4435L197.824 79.4926L199.013 80.4435ZM204.94 95.3565L206.273 94.6209H206.273L204.94 95.3565ZM200.597 115.491L199.786 114.203L200.597 115.491ZM196.617 118.168L195.654 116.99H195.654L196.617 118.168ZM195.535 127.706L197.053 127.587L195.535 127.706ZM194.821 136.432L195.953 137.45L195.953 137.45L194.821 136.432ZM172.665 130.743L171.848 132.027L171.848 132.027L172.665 130.743ZM165.442 133.189L164.82 131.8H164.82L165.442 133.189ZM162.744 134.384L161.23 134.54C161.161 133.879 161.53 133.25 162.14 132.986L162.744 134.384ZM166.433 158.174L167.354 156.962L167.354 156.962L166.433 158.174ZM174.646 158.848L174.637 160.37L174.646 158.848ZM183.38 159.706L182.148 160.599V160.599L183.38 159.706ZM185.163 163.32L183.773 163.941L185.163 163.32ZM188.79 169.921L187.776 171.055H187.776L188.79 169.921ZM202.053 176.742L202.511 178.193H202.511L202.053 176.742ZM206.334 168.613L207.775 169.104L206.334 168.613ZM207.903 164.705L209.112 165.63H209.112L207.903 164.705ZM223.653 155.063L223.798 156.578H223.798L223.653 155.063ZM262.684 174.467L263.462 173.159C263.923 173.433 264.206 173.93 264.206 174.467H262.684ZM262.684 185.457H264.206C264.206 185.988 263.929 186.481 263.475 186.757C263.022 187.034 262.457 187.054 261.985 186.81L262.684 185.457ZM241.97 174.467L242.841 173.218L242.841 173.218L241.97 174.467ZM241.701 174.278L242.575 173.032L242.575 173.032L241.701 174.278ZM225.51 166.71L226.204 168.065H226.204L225.51 166.71ZM215.215 176.954L216.341 177.979L215.215 176.954ZM207.903 184.423L207.143 183.104H207.143L207.903 184.423ZM195.81 187.465L195.653 188.979H195.652L195.81 187.465ZM184.606 177.804L185.695 176.74L184.606 177.804ZM175.906 169.921L175.406 171.359L175.906 169.921ZM167.011 169.88L166.887 168.363L167.011 169.88ZM159.991 169.921L159.449 171.343L159.449 171.343L159.991 169.921ZM154.95 161.945L153.546 162.533L154.95 161.945ZM154.307 160.447L155.69 159.812L154.307 160.447ZM151.068 134.913L151.613 133.491C152.149 133.697 152.524 134.186 152.582 134.757L151.068 134.913ZM142.846 131.49L143.449 130.092L142.846 131.49ZM135.539 128.647L135.351 127.137H135.351L135.539 128.647ZM131.9 131.803L130.749 130.807V130.807L131.9 131.803ZM110.39 126.252L109.432 125.069C110.012 124.599 110.848 124.62 111.404 125.118L110.39 126.252ZM87.6241 134.617L88.0539 133.157L87.6241 134.617ZM80.1499 132.839L80.0593 131.32L80.1499 132.839ZM74.6652 135.719L75.4774 137.006L74.6652 135.719ZM66.6767 139.426L66.3236 140.907H66.3236L66.6767 139.426ZM63.9821 118.168L63.4675 119.601H63.4675L63.9821 118.168ZM53.278 120.436L53.6992 121.898L53.278 120.436ZM40.3293 122.959L39.68 124.335L40.3293 122.959ZM38.8332 105.985L37.3119 105.933L38.8332 105.985ZM38.8323 100.204L37.392 100.697L38.8323 100.204ZM28.5212 100.855L28.7413 102.361L28.5212 100.855ZM16.8787 101.518L18.2223 100.803V100.803L16.8787 101.518ZM21.2027 87.2785L19.7723 86.7579L21.2027 87.2785ZM25.3591 73.8567L23.911 74.3256L25.3591 73.8567ZM16.7788 69.197L17.4096 67.8117L16.7788 69.197ZM2.00574 60.0841L3.52145 59.9443V59.9443L2.00574 60.0841ZM14.8994 44.4389L15.9764 45.5146L14.8994 44.4389ZM22.3651 36.1319L23.8757 36.3194V36.3194L22.3651 36.1319ZM17.7641 29.8729L18.8759 28.8333L17.7641 29.8729ZM13.383 23.8564L11.9161 23.4502L11.9161 23.4502L13.383 23.8564ZM26.0006 20.3237L25.7324 18.8253L26.0006 20.3237ZM31.946 19.066L31.3182 17.6793L31.946 19.066ZM32.9702 13.4781L34.4924 13.4826V13.4826L32.9702 13.4781ZM34.0418 7.08985L35.0439 8.23564V8.23564L34.0418 7.08985ZM52.7728 9.25353L53.062 7.75911V7.75911L52.7728 9.25353ZM71.1545 6.60808L70.4839 5.2416V5.2416L71.1545 6.60808ZM92.8324 6.87571L92.055 8.18437V8.18437L92.8324 6.87571ZM109.936 7.03079L109.316 5.64053V5.64053L109.936 7.03079ZM132.246 6.90314L133.174 5.69607V5.69607L132.246 6.90314ZM144.552 8.93465L144.025 7.50663V7.50663L144.552 8.93465ZM152.605 7.08985L151.995 8.48449V8.48449L152.605 7.08985ZM154.601 13.4143L156.112 13.2276V13.2276L154.601 13.4143ZM156.198 19.066L156.994 17.7686V17.7686L156.198 19.066ZM173.72 16.776C173.889 16.8601 173.984 16.8477 173.884 16.8426C173.808 16.8388 173.672 16.8419 173.462 16.865C173.041 16.9112 172.468 17.0203 171.754 17.1881C170.331 17.5226 168.537 18.045 166.633 18.5995L165.782 15.6767C167.659 15.1299 169.54 14.5814 171.057 14.2246C171.814 14.0467 172.527 13.905 173.13 13.8388C173.431 13.8058 173.741 13.7873 174.036 13.8021C174.306 13.8156 174.696 13.8618 175.075 14.0501L173.72 16.776ZM173.806 21.2524C173.797 19.8767 173.788 18.6201 173.681 17.6521C173.627 17.166 173.556 16.8401 173.487 16.6474C173.401 16.4074 173.409 16.6216 173.72 16.776L175.075 14.0501C175.835 14.4279 176.182 15.1453 176.352 15.6187C176.539 16.1395 176.642 16.7374 176.706 17.3158C176.835 18.4767 176.842 19.9119 176.85 21.2343L173.806 21.2524ZM175.52 28.4808C174.8 28.0813 174.467 27.3779 174.299 26.8983C174.116 26.3733 174.013 25.7723 173.949 25.1875C173.82 24.0153 173.814 22.5754 173.806 21.2525L176.85 21.2343C176.858 22.609 176.867 23.8731 176.975 24.8551C177.029 25.3474 177.1 25.6861 177.173 25.8937C177.262 26.1469 177.268 25.9692 176.997 25.8189L175.52 28.4808ZM184.601 28.7624C182.479 28.8335 180.535 28.8988 179.044 28.9017C178.3 28.9032 177.636 28.8893 177.103 28.8488C176.838 28.8286 176.578 28.7999 176.342 28.7562C176.14 28.7187 175.82 28.6474 175.52 28.4808L176.997 25.8189C176.853 25.7393 176.777 25.7406 176.897 25.7629C176.985 25.7791 177.126 25.7974 177.334 25.8133C177.749 25.8448 178.32 25.8588 179.038 25.8574C180.47 25.8546 182.358 25.7915 184.499 25.7197L184.601 28.7624ZM203.734 29.7906C203.762 29.832 203.708 29.7317 203.365 29.5738C203.041 29.4249 202.574 29.2772 201.95 29.1449C200.703 28.8807 199.039 28.72 197.106 28.6377C193.252 28.4733 188.59 28.6287 184.601 28.7624L184.499 25.7197C188.458 25.5871 193.243 25.4258 197.236 25.5961C199.228 25.681 201.089 25.8505 202.581 26.1668C203.326 26.3248 204.032 26.53 204.636 26.8076C205.22 27.0762 205.85 27.476 206.267 28.1019L203.734 29.7906ZM198.55 43.4323C200.033 40.5227 201.643 37.3608 202.702 34.6536C203.233 33.2971 203.596 32.1265 203.748 31.2041C203.913 30.203 203.769 29.8428 203.734 29.7906L206.267 28.1019C206.981 29.1718 206.942 30.5472 206.752 31.6988C206.55 32.9292 206.098 34.3285 205.537 35.7631C204.412 38.6379 202.726 41.9425 201.263 44.8146L198.55 43.4323ZM195.095 51.7009C195.095 51.1501 195.265 50.5499 195.444 50.0339C195.636 49.4771 195.904 48.8414 196.213 48.1627C196.831 46.8059 197.67 45.159 198.55 43.4323L201.263 44.8146C200.372 46.5619 199.567 48.1419 198.983 49.4243C198.691 50.0652 198.468 50.6023 198.321 51.0288C198.248 51.2412 198.199 51.4088 198.17 51.5359C198.139 51.6707 198.14 51.7175 198.14 51.7009H195.095ZM202.278 61.0108C200.606 59.3386 198.88 57.6139 197.575 56.1157C196.923 55.3674 196.34 54.6349 195.912 53.9625C195.527 53.3573 195.095 52.5447 195.095 51.7009H198.14C198.14 51.6056 198.129 51.7754 198.481 52.328C198.789 52.8134 199.259 53.4142 199.87 54.1162C201.092 55.5185 202.734 57.162 204.43 58.8581L202.278 61.0108ZM208.568 68.168C208.568 68.2633 208.579 68.0935 208.227 67.5408C207.919 67.0555 207.449 66.4547 206.838 65.7527C205.616 64.3504 203.974 62.7069 202.278 61.0108L204.43 58.8581C206.103 60.5303 207.828 62.255 209.133 63.7532C209.785 64.5015 210.368 65.2339 210.796 65.9064C211.181 66.5116 211.613 67.3242 211.613 68.168H208.568ZM202.091 75.3198C203.728 73.8376 205.416 72.3081 206.698 70.9127C207.338 70.2154 207.837 69.5947 208.167 69.068C208.521 68.5038 208.568 68.2241 208.568 68.168H211.613C211.613 69.0935 211.194 69.9724 210.746 70.6856C210.275 71.4365 209.638 72.2122 208.939 72.9723C207.544 74.4917 205.742 76.1207 204.134 77.5767L202.091 75.3198ZM197.824 79.4926C198.745 78.3416 200.433 76.8204 202.091 75.3198L204.134 77.5767C202.383 79.162 200.93 80.4837 200.201 81.3944L197.824 79.4926ZM203.607 96.0922C201.863 92.9322 200.004 89.5677 198.759 86.7756C198.138 85.3851 197.635 84.06 197.384 82.9285C197.258 82.3625 197.181 81.7809 197.212 81.2282C197.243 80.68 197.387 80.0386 197.824 79.4926L200.201 81.3944C200.297 81.2747 200.262 81.2204 200.252 81.398C200.242 81.5712 200.264 81.8541 200.356 82.2695C200.54 83.1008 200.946 84.2053 201.539 85.5353C202.721 88.1842 204.508 91.4237 206.273 94.6209L203.607 96.0922ZM208.568 106.492C208.568 106.322 208.494 105.911 208.229 105.189C207.98 104.507 207.61 103.675 207.142 102.718C206.207 100.802 204.94 98.506 203.607 96.0922L206.273 94.6209C207.593 97.0133 208.902 99.3827 209.878 101.382C210.366 102.382 210.787 103.32 211.088 104.143C211.375 104.927 211.613 105.759 211.613 106.492H208.568ZM199.786 114.203C201.902 112.871 204.183 111.433 205.94 109.968C206.816 109.238 207.504 108.548 207.962 107.913C208.427 107.268 208.568 106.803 208.568 106.492H211.613C211.613 107.693 211.091 108.78 210.431 109.694C209.763 110.619 208.863 111.495 207.889 112.307C205.946 113.927 203.48 115.475 201.407 116.78L199.786 114.203ZM195.654 116.99C196.661 116.166 198.208 115.196 199.786 114.203L201.407 116.78C199.757 117.818 198.406 118.671 197.581 119.346L195.654 116.99ZM194.018 127.825C193.862 125.842 193.691 123.699 193.793 121.871C193.844 120.951 193.967 120.038 194.229 119.222C194.49 118.407 194.921 117.59 195.654 116.99L197.581 119.346C197.454 119.45 197.28 119.675 197.128 120.151C196.976 120.626 196.876 121.255 196.832 122.04C196.744 123.622 196.892 125.544 197.053 127.587L194.018 127.825ZM193.69 135.414C193.785 135.308 193.924 135.075 194.04 134.612C194.154 134.158 194.223 133.574 194.248 132.86C194.298 131.421 194.164 129.691 194.018 127.825L197.053 127.587C197.195 129.402 197.348 131.319 197.29 132.966C197.262 133.794 197.178 134.612 196.993 135.353C196.809 136.086 196.501 136.841 195.953 137.45L193.69 135.414ZM173.483 129.459C174.969 130.405 179.692 132.528 184.432 134.047C186.789 134.802 189.059 135.377 190.864 135.589C191.769 135.696 192.489 135.702 193.012 135.627C193.562 135.547 193.696 135.407 193.69 135.414L195.953 137.45C195.273 138.206 194.312 138.514 193.449 138.639C192.559 138.768 191.548 138.735 190.508 138.613C188.42 138.367 185.937 137.725 183.503 136.946C178.663 135.395 173.656 133.178 171.848 132.027L173.483 129.459ZM164.82 131.8C166.501 131.046 168.176 130.295 169.523 129.794C170.193 129.546 170.844 129.335 171.41 129.223C171.692 129.166 172.005 129.124 172.318 129.131C172.609 129.137 173.057 129.188 173.483 129.459L171.848 132.027C171.977 132.109 172.089 132.144 172.153 132.159C172.186 132.167 172.211 132.171 172.227 132.172C172.242 132.174 172.251 132.174 172.252 132.174C172.253 132.174 172.247 132.174 172.236 132.175C172.224 132.175 172.207 132.177 172.185 132.179C172.14 132.184 172.08 132.193 172.003 132.208C171.676 132.273 171.204 132.418 170.583 132.648C169.35 133.106 167.779 133.81 166.065 134.578L164.82 131.8ZM162.14 132.986C163.024 132.604 163.926 132.2 164.82 131.8L166.065 134.578C165.175 134.977 164.253 135.389 163.347 135.781L162.14 132.986ZM164.258 134.227C164.741 138.899 165.377 144.608 166.033 149.25C166.361 151.575 166.69 153.605 167.003 155.095C167.161 155.844 167.306 156.42 167.435 156.815C167.5 157.015 167.549 157.132 167.578 157.189C167.628 157.291 167.574 157.129 167.354 156.962L165.511 159.385C165.15 159.11 164.95 158.741 164.852 158.545C164.732 158.303 164.63 158.031 164.541 157.759C164.362 157.21 164.19 156.511 164.024 155.721C163.69 154.13 163.349 152.021 163.018 149.675C162.355 144.976 161.714 139.222 161.23 134.54L164.258 134.227ZM167.354 156.962C167.242 156.877 167.294 156.954 167.81 157.045C168.244 157.121 168.829 157.18 169.548 157.222C170.983 157.305 172.783 157.316 174.654 157.326L174.637 160.37C172.793 160.36 170.903 160.35 169.37 160.261C168.604 160.216 167.885 160.149 167.281 160.043C166.76 159.951 166.041 159.788 165.511 159.385L167.354 156.962ZM174.654 157.326C176.658 157.336 178.748 157.347 180.411 157.461C181.239 157.517 182.022 157.603 182.662 157.744C182.982 157.815 183.315 157.909 183.62 158.045C183.901 158.17 184.311 158.396 184.613 158.813L182.148 160.599C182.302 160.811 182.455 160.859 182.382 160.826C182.335 160.805 182.219 160.764 182.008 160.717C181.587 160.625 180.98 160.551 180.203 160.498C178.657 160.392 176.674 160.381 174.637 160.37L174.654 157.326ZM184.613 158.813C184.921 159.238 185.24 159.857 185.539 160.48C185.852 161.13 186.197 161.904 186.552 162.699L183.773 163.941C183.413 163.135 183.085 162.403 182.795 161.797C182.491 161.164 182.276 160.776 182.148 160.599L184.613 158.813ZM186.552 162.699C187.127 163.985 187.733 165.341 188.332 166.5C188.965 167.724 189.476 168.492 189.805 168.786L187.776 171.055C186.975 170.339 186.242 169.084 185.628 167.898C184.982 166.648 184.339 165.208 183.773 163.941L186.552 162.699ZM189.805 168.786C190.618 169.513 193.186 171.364 195.899 172.939C197.248 173.721 198.574 174.402 199.691 174.834C200.25 175.05 200.716 175.188 201.081 175.253C201.471 175.324 201.611 175.285 201.595 175.29L202.511 178.193C201.845 178.403 201.14 178.357 200.543 178.25C199.919 178.138 199.255 177.929 198.593 177.673C197.265 177.16 195.784 176.392 194.371 175.572C191.563 173.942 188.801 171.973 187.776 171.055L189.805 168.786ZM201.595 175.29C201.558 175.302 201.726 175.249 202.054 174.808C202.356 174.403 202.68 173.824 203.018 173.094C203.694 171.633 204.316 169.815 204.893 168.122L207.775 169.104C207.21 170.759 206.537 172.739 205.781 174.373C205.402 175.189 204.976 175.981 204.495 176.627C204.04 177.238 203.393 177.915 202.511 178.193L201.595 175.29ZM204.893 168.122C205.198 167.228 205.494 166.36 205.769 165.645C206.021 164.989 206.328 164.26 206.694 163.781L209.112 165.63C209.113 165.629 209.095 165.653 209.061 165.713C209.028 165.77 208.988 165.848 208.94 165.949C208.844 166.152 208.734 166.415 208.61 166.738C208.361 167.386 208.085 168.193 207.775 169.104L204.893 168.122ZM206.694 163.781C207.109 163.238 208.019 162.375 209.117 161.441C210.256 160.473 211.71 159.336 213.301 158.233C214.89 157.132 216.639 156.049 218.368 155.201C220.075 154.364 221.864 153.705 223.508 153.548L223.798 156.578C222.686 156.685 221.28 157.164 219.708 157.935C218.157 158.695 216.543 159.691 215.035 160.736C213.53 161.778 212.156 162.854 211.089 163.76C209.982 164.701 209.306 165.376 209.112 165.63L206.694 163.781ZM223.508 153.548C224.08 153.493 224.71 153.576 225.317 153.705C225.945 153.839 226.649 154.046 227.405 154.305C228.918 154.823 230.731 155.582 232.71 156.488C236.674 158.304 241.416 160.765 245.961 163.229C250.51 165.696 254.885 168.178 258.12 170.042C259.738 170.974 261.073 171.753 262.003 172.299C262.468 172.571 262.832 172.786 263.08 172.933C263.204 173.006 263.299 173.062 263.363 173.1C263.396 173.119 263.42 173.134 263.436 173.144C263.445 173.148 263.451 173.152 263.455 173.155C263.457 173.156 263.459 173.157 263.46 173.158C263.46 173.158 263.461 173.158 263.461 173.158C263.461 173.158 263.462 173.159 262.684 174.467C261.906 175.775 261.906 175.775 261.905 175.775C261.905 175.775 261.905 175.775 261.904 175.774C261.903 175.774 261.902 175.773 261.9 175.772C261.896 175.769 261.89 175.766 261.882 175.761C261.866 175.752 261.843 175.738 261.811 175.719C261.748 175.682 261.654 175.626 261.531 175.554C261.286 175.409 260.925 175.195 260.462 174.924C259.538 174.382 258.211 173.608 256.6 172.68C253.379 170.823 249.029 168.355 244.51 165.905C239.986 163.452 235.314 161.029 231.443 159.256C229.505 158.368 227.795 157.656 226.419 157.185C225.731 156.95 225.15 156.782 224.682 156.682C224.192 156.578 223.915 156.567 223.798 156.578L223.508 153.548ZM264.206 174.467V185.457H261.161V174.467H264.206ZM262.684 185.457C261.985 186.81 261.985 186.81 261.985 186.81C261.985 186.81 261.985 186.81 261.984 186.809C261.984 186.809 261.983 186.809 261.982 186.808C261.98 186.807 261.976 186.805 261.971 186.803C261.962 186.798 261.948 186.791 261.93 186.782C261.894 186.763 261.84 186.735 261.77 186.699C261.63 186.626 261.424 186.52 261.162 186.384C260.637 186.113 259.885 185.723 258.978 185.253C257.163 184.311 254.727 183.044 252.238 181.741C249.75 180.438 247.207 179.097 245.181 178.01C243.212 176.952 241.604 176.067 241.1 175.715L242.841 173.218C243.16 173.44 244.553 174.217 246.622 175.327C248.634 176.408 251.166 177.743 253.651 179.044C256.135 180.345 258.567 181.61 260.38 182.55C261.286 183.02 262.036 183.409 262.561 183.68C262.823 183.816 263.028 183.922 263.168 183.994C263.238 184.03 263.291 184.058 263.327 184.077C263.345 184.086 263.359 184.093 263.368 184.098C263.373 184.1 263.376 184.102 263.378 184.103C263.38 184.104 263.38 184.104 263.381 184.104C263.381 184.105 263.381 184.105 263.382 184.105C263.382 184.105 263.382 184.105 262.684 185.457ZM241.1 175.715C241.026 175.664 240.933 175.598 240.826 175.523L242.575 173.032C242.684 173.108 242.772 173.17 242.841 173.218L241.1 175.715ZM240.826 175.523C239.642 174.692 236.434 172.44 233.149 170.597C231.5 169.673 229.889 168.884 228.538 168.423C227.862 168.193 227.303 168.063 226.869 168.023C226.417 167.981 226.236 168.049 226.204 168.065L224.817 165.355C225.568 164.971 226.406 164.923 227.149 164.991C227.908 165.061 228.716 165.268 229.52 165.542C231.129 166.09 232.926 166.982 234.638 167.942C238.073 169.868 241.393 172.202 242.575 173.032L240.826 175.523ZM226.204 168.065C225.941 168.2 225.448 168.561 224.719 169.214C224.021 169.839 223.195 170.648 222.284 171.583C220.462 173.453 218.36 175.761 216.341 177.979L214.09 175.929C216.099 173.723 218.239 171.373 220.104 169.458C221.037 168.501 221.916 167.637 222.689 166.946C223.43 166.282 224.174 165.684 224.817 165.355L226.204 168.065ZM216.341 177.979C214.717 179.763 213.143 181.49 211.841 182.85C211.19 183.529 210.593 184.131 210.081 184.609C209.601 185.058 209.1 185.49 208.664 185.741L207.143 183.104C207.245 183.045 207.521 182.835 208.003 182.385C208.455 181.963 209.008 181.407 209.643 180.744C210.913 179.418 212.457 177.723 214.09 175.929L216.341 177.979ZM208.664 185.741C207.312 186.521 205.06 187.418 202.715 188.072C200.391 188.72 197.746 189.197 195.653 188.979L195.968 185.951C197.48 186.108 199.678 185.759 201.896 185.14C204.094 184.527 206.085 183.714 207.143 183.104L208.664 185.741ZM195.652 188.979C194.732 188.883 193.78 188.319 192.98 187.757C192.109 187.145 191.134 186.323 190.117 185.397C188.081 183.542 185.739 181.143 183.517 178.867L185.695 176.74C187.937 179.036 190.211 181.364 192.167 183.146C193.146 184.038 194.012 184.761 194.73 185.266C195.089 185.518 195.385 185.697 195.62 185.813C195.869 185.937 195.975 185.951 195.968 185.951L195.652 188.979ZM183.517 178.867C181.663 176.967 179.893 175.155 178.399 173.751C177.652 173.049 176.996 172.47 176.45 172.042C175.866 171.586 175.532 171.402 175.406 171.359L176.406 168.483C177.041 168.704 177.712 169.165 178.326 169.645C178.976 170.154 179.708 170.803 180.484 171.533C182.036 172.991 183.856 174.856 185.695 176.74L183.517 178.867ZM175.406 171.359C174.799 171.147 173.681 171.053 172.108 171.085C170.591 171.116 168.861 171.256 167.134 171.397L166.887 168.363C168.591 168.224 170.418 168.075 172.045 168.041C173.617 168.009 175.231 168.075 176.406 168.483L175.406 171.359ZM167.134 171.397C165.629 171.519 164.116 171.643 162.834 171.678C162.192 171.696 161.577 171.693 161.03 171.651C160.503 171.611 159.94 171.53 159.449 171.343L160.532 168.498C160.615 168.53 160.836 168.583 161.259 168.615C161.661 168.646 162.161 168.651 162.75 168.635C163.933 168.602 165.357 168.487 166.887 168.363L167.134 171.397ZM159.449 171.343C158.592 171.017 157.897 170.371 157.351 169.723C156.789 169.054 156.278 168.251 155.822 167.432C154.913 165.797 154.126 163.916 153.546 162.533L156.354 161.356C156.945 162.767 157.669 164.489 158.483 165.952C158.889 166.682 159.292 167.301 159.681 167.763C160.087 168.246 160.38 168.44 160.532 168.498L159.449 171.343ZM153.546 162.533C153.297 161.937 153.092 161.449 152.923 161.082L155.69 159.812C155.884 160.235 156.112 160.778 156.354 161.356L153.546 162.533ZM152.923 161.082C152.751 160.708 152.625 160.145 152.521 159.626C152.405 159.043 152.281 158.301 152.151 157.443C151.891 155.725 151.6 153.482 151.3 150.99C150.699 146.005 150.058 139.979 149.554 135.068L152.582 134.757C153.086 139.664 153.725 145.668 154.322 150.626C154.621 153.107 154.908 155.315 155.161 156.988C155.288 157.826 155.405 158.516 155.507 159.032C155.623 159.613 155.692 159.818 155.69 159.812L152.923 161.082ZM143.449 130.092C146.144 131.254 149.112 132.532 151.613 133.491L150.523 136.334C147.952 135.348 144.924 134.043 142.244 132.888L143.449 130.092ZM135.351 127.137C135.707 127.092 136.045 127.166 136.199 127.201C136.409 127.249 136.64 127.318 136.874 127.395C137.344 127.55 137.932 127.773 138.591 128.038C139.912 128.568 141.622 129.305 143.449 130.092L142.244 132.888C140.404 132.095 138.734 131.376 137.457 130.863C136.816 130.606 136.299 130.411 135.921 130.286C135.73 130.223 135.601 130.187 135.522 130.169C135.388 130.138 135.509 130.185 135.728 130.158L135.351 127.137ZM130.749 130.807C131.425 130.026 132.135 129.202 132.814 128.564C133.432 127.983 134.311 127.267 135.351 127.137L135.728 130.158C135.749 130.155 135.499 130.218 134.899 130.782C134.359 131.29 133.759 131.981 133.051 132.799L130.749 130.807ZM125.659 134.91C126.227 134.91 126.969 134.583 127.933 133.766C128.874 132.969 129.797 131.907 130.749 130.807L133.051 132.799C132.135 133.858 131.056 135.111 129.901 136.088C128.771 137.046 127.327 137.954 125.659 137.954V134.91ZM110.39 126.252C111.404 125.118 111.404 125.118 111.404 125.118C111.404 125.118 111.405 125.118 111.405 125.118C111.405 125.118 111.405 125.118 111.406 125.119C111.407 125.12 111.409 125.122 111.411 125.124C111.416 125.128 111.424 125.135 111.434 125.144C111.455 125.163 111.486 125.19 111.527 125.226C111.609 125.299 111.731 125.406 111.887 125.543C112.201 125.817 112.655 126.209 113.211 126.681C114.327 127.625 115.85 128.88 117.489 130.132C119.134 131.389 120.867 132.621 122.406 133.531C123.176 133.986 123.87 134.344 124.46 134.585C125.075 134.835 125.463 134.91 125.659 134.91V137.954C124.882 137.954 124.063 137.71 123.311 137.404C122.534 137.088 121.7 136.65 120.856 136.152C119.168 135.153 117.327 133.84 115.641 132.552C113.949 131.259 112.384 129.969 111.245 129.005C110.674 128.522 110.208 128.119 109.885 127.836C109.723 127.695 109.596 127.583 109.51 127.507C109.466 127.468 109.433 127.439 109.41 127.419C109.399 127.408 109.39 127.401 109.384 127.395C109.381 127.393 109.379 127.391 109.377 127.389C109.377 127.388 109.376 127.388 109.375 127.387C109.375 127.387 109.375 127.387 109.375 127.387C109.375 127.387 109.375 127.387 110.39 126.252ZM95.12 134.91C95.0945 134.91 95.3197 134.886 95.9107 134.613C96.4367 134.37 97.0927 134.006 97.8475 133.543C99.353 132.621 101.139 131.377 102.867 130.113C104.59 128.854 106.232 127.592 107.445 126.643C108.051 126.17 108.549 125.775 108.895 125.499C109.068 125.362 109.203 125.253 109.294 125.18C109.34 125.143 109.374 125.115 109.398 125.097C109.409 125.087 109.418 125.08 109.424 125.076C109.426 125.073 109.429 125.072 109.43 125.071C109.431 125.07 109.431 125.07 109.431 125.069C109.432 125.069 109.432 125.069 109.432 125.069C109.432 125.069 109.432 125.069 110.39 126.252C111.347 127.435 111.347 127.435 111.347 127.435C111.347 127.436 111.347 127.436 111.346 127.436C111.346 127.436 111.345 127.437 111.344 127.438C111.343 127.439 111.34 127.441 111.337 127.443C111.331 127.449 111.321 127.456 111.309 127.466C111.285 127.486 111.248 127.515 111.201 127.553C111.107 127.629 110.969 127.739 110.793 127.88C110.44 128.161 109.935 128.561 109.32 129.042C108.091 130.002 106.421 131.286 104.664 132.571C102.911 133.852 101.048 135.153 99.4378 136.139C98.6348 136.631 97.8663 137.063 97.1888 137.376C96.5764 137.659 95.8191 137.954 95.12 137.954V134.91ZM88.0539 133.157C89.5977 133.611 91.1119 134.057 92.405 134.39C93.7552 134.737 94.6777 134.91 95.12 134.91V137.954C94.2318 137.954 92.9429 137.672 91.6462 137.338C90.2922 136.989 88.7237 136.527 87.1942 136.077L88.0539 133.157ZM80.0593 131.32C80.5441 131.291 81.1089 131.362 81.6445 131.458C82.2065 131.558 82.8481 131.705 83.528 131.878C84.8866 132.224 86.4865 132.695 88.0539 133.157L87.1942 136.077C85.6107 135.611 84.0697 135.158 82.777 134.829C82.1313 134.664 81.5696 134.537 81.1108 134.455C80.6255 134.369 80.3518 134.352 80.2404 134.358L80.0593 131.32ZM73.8531 134.432C75.0045 133.705 76.1616 132.975 77.1605 132.42C77.6612 132.143 78.1525 131.892 78.6066 131.703C79.0342 131.525 79.5475 131.35 80.0593 131.32L80.2404 134.358C80.2445 134.358 80.1091 134.375 79.7765 134.514C79.4705 134.641 79.0901 134.831 78.6374 135.082C77.7293 135.586 76.6518 136.265 75.4774 137.006L73.8531 134.432ZM67.0298 137.945C67.0116 137.941 67.1915 137.973 67.6916 137.819C68.1515 137.677 68.7252 137.428 69.3994 137.082C70.7494 136.388 72.3024 135.41 73.8531 134.432L75.4774 137.006C73.9592 137.964 72.2843 139.022 70.7905 139.789C70.0429 140.174 69.2907 140.511 68.5885 140.728C67.9265 140.932 67.1083 141.094 66.3236 140.907L67.0298 137.945ZM66.8516 128.919C66.8516 131.499 66.8528 133.971 67.0143 135.838C67.0958 136.781 67.2112 137.471 67.3495 137.91C67.4188 138.13 67.4698 138.206 67.4681 138.204C67.4614 138.194 67.3287 138.017 67.0298 137.945L66.3236 140.907C65.6879 140.755 65.2605 140.348 64.9959 139.98C64.7364 139.619 64.5663 139.206 64.4462 138.826C64.2055 138.063 64.0682 137.105 63.9813 136.101C63.806 134.073 63.8073 131.452 63.8073 128.919H66.8516ZM64.4967 116.736C65.0814 116.946 65.4628 117.362 65.7009 117.727C65.9394 118.091 66.1013 118.504 66.2189 118.896C66.4541 119.679 66.5908 120.653 66.6777 121.679C66.8528 123.746 66.8516 126.385 66.8516 128.919H63.8073C63.8073 126.34 63.806 123.846 63.6443 121.936C63.5628 120.975 63.4469 120.25 63.3031 119.771C63.2313 119.532 63.1721 119.422 63.1528 119.392C63.1329 119.362 63.2197 119.512 63.4675 119.601L64.4967 116.736ZM52.8568 118.973C55.2673 118.279 57.6692 117.587 59.627 117.127C60.6049 116.898 61.512 116.716 62.2777 116.624C62.9596 116.542 63.8096 116.489 64.4967 116.736L63.4675 119.601C63.5248 119.621 63.3276 119.564 62.6415 119.647C62.0393 119.719 61.2576 119.871 60.3226 120.091C58.4547 120.529 56.1342 121.197 53.6992 121.898L52.8568 118.973ZM40.9786 121.582C40.9689 121.577 41.2581 121.665 42.1091 121.588C42.8699 121.519 43.8474 121.346 44.9961 121.089C47.2907 120.575 50.0828 119.772 52.8568 118.973L53.6992 121.898C50.9525 122.689 48.0638 123.522 45.661 124.059C44.461 124.328 43.3357 124.534 42.3824 124.62C41.5193 124.698 40.4832 124.714 39.68 124.335L40.9786 121.582ZM40.3545 106.038C40.2434 109.278 40.1094 113.217 40.2523 116.462C40.3241 118.092 40.4633 119.473 40.6873 120.475C40.7998 120.978 40.9197 121.319 41.0257 121.527C41.1427 121.757 41.1617 121.668 40.9786 121.582L39.68 124.335C38.9857 124.008 38.5677 123.41 38.3122 122.907C38.0455 122.383 37.8573 121.769 37.7164 121.139C37.4337 119.876 37.2852 118.283 37.2109 116.596C37.0617 113.209 37.202 109.143 37.3119 105.933L40.3545 106.038ZM40.2725 99.7115C40.3969 100.075 40.4278 100.525 40.4433 100.841C40.4619 101.221 40.4656 101.685 40.4606 102.201C40.4506 103.234 40.4048 104.569 40.3545 106.038L37.3119 105.933C37.3627 104.45 37.4069 103.159 37.4164 102.172C37.4212 101.677 37.4169 101.282 37.4026 100.99C37.3852 100.634 37.3581 100.598 37.392 100.697L40.2725 99.7115ZM28.3011 99.3487C30.8425 98.9773 33.3984 98.6032 35.3536 98.4274C36.3222 98.3403 37.2166 98.2945 37.9159 98.3374C38.2564 98.3583 38.6438 98.4047 38.9993 98.5229C39.2822 98.6171 39.9966 98.9049 40.2725 99.7115L37.392 100.697C37.4965 101.002 37.6856 101.191 37.8148 101.288C37.9353 101.378 38.0286 101.408 38.0385 101.412C38.0516 101.416 37.9692 101.391 37.7294 101.376C37.2684 101.348 36.5613 101.375 35.6263 101.459C33.7742 101.626 31.314 101.985 28.7413 102.361L28.3011 99.3487ZM18.2223 100.803C17.9989 100.383 17.6574 100.315 17.7612 100.348C17.8085 100.362 17.9555 100.395 18.2469 100.414C18.8185 100.452 19.6541 100.422 20.7166 100.33C22.8267 100.148 25.5589 99.7494 28.3011 99.3487L28.7413 102.361C26.0302 102.757 23.1976 103.172 20.978 103.363C19.8756 103.458 18.8551 103.505 18.0477 103.452C17.6497 103.426 17.2265 103.371 16.8439 103.25C16.5178 103.147 15.8867 102.894 15.5352 102.234L18.2223 100.803ZM22.633 87.7992C21.4315 91.0999 20.2339 94.3906 19.3991 96.9754C18.9805 98.2715 18.6659 99.3515 18.4872 100.148C18.3971 100.55 18.3516 100.836 18.3372 101.02C18.33 101.111 18.3335 101.143 18.3325 101.132C18.3318 101.124 18.3284 101.092 18.3158 101.041C18.3035 100.992 18.2774 100.906 18.2223 100.803L15.5352 102.234C15.3694 101.922 15.3199 101.614 15.3012 101.414C15.2809 101.195 15.2868 100.979 15.3021 100.783C15.3327 100.391 15.4127 99.9452 15.5168 99.4814C15.7265 98.5466 16.0755 97.3609 16.5021 96.0398C17.3578 93.3902 18.5774 90.0404 19.7723 86.7579L22.633 87.7992ZM26.8073 73.3878C26.9592 73.857 26.9192 74.355 26.8842 74.6574C26.8417 75.0237 26.7589 75.44 26.6539 75.8787C26.4431 76.7602 26.1104 77.8668 25.7072 79.1008C24.8992 81.5741 23.7643 84.6914 22.633 87.7992L19.7723 86.7579C20.9096 83.6335 22.0246 80.5699 22.8134 78.1554C23.2087 76.9455 23.5112 75.9314 23.6931 75.1707C23.7845 74.7883 23.8374 74.5032 23.8601 74.307C23.8902 74.0469 23.8449 74.1214 23.911 74.3256L26.8073 73.3878ZM17.4096 67.8117C19.633 68.8241 21.7459 69.7857 23.3369 70.6067C24.1295 71.0157 24.8385 71.413 25.3839 71.7845C25.6554 71.9696 25.9233 72.1729 26.1503 72.3926C26.3499 72.5858 26.656 72.9206 26.8073 73.3878L23.911 74.3256C23.9908 74.572 24.1149 74.6593 24.0333 74.5803C23.9791 74.5279 23.8665 74.4345 23.6697 74.3004C23.2782 74.0337 22.6986 73.7031 21.9409 73.312C20.4314 72.5331 18.3971 71.6064 16.148 70.5823L17.4096 67.8117ZM3.52145 59.9443C3.51541 59.8788 3.50137 59.9464 3.6629 60.1658C3.81815 60.3768 4.0759 60.6466 4.46313 60.9702C5.23849 61.618 6.3667 62.3451 7.75874 63.1249C10.5353 64.6805 14.1077 66.3083 17.4096 67.8117L16.148 70.5823C12.88 69.0943 9.18088 67.4112 6.27081 65.7809C4.81955 64.9678 3.5007 64.1332 2.51111 63.3063C2.01587 62.8925 1.56165 62.4466 1.21118 61.9705C0.867004 61.503 0.553528 60.9122 0.490021 60.224L3.52145 59.9443ZM15.9764 45.5146C13.0139 48.4809 9.77022 51.7298 7.29453 54.5453C6.05441 55.9557 5.04358 57.2165 4.36496 58.2503C4.02527 58.7678 3.79358 59.1913 3.65649 59.5207C3.50858 59.8759 3.52585 59.9919 3.52145 59.9443L0.490021 60.224C0.427856 59.5506 0.620209 58.893 0.845978 58.3507C1.08252 57.7825 1.4231 57.1843 1.81998 56.5797C2.61456 55.3693 3.73431 53.984 5.0083 52.5351C7.56085 49.6321 10.8795 46.31 13.8223 43.3633L15.9764 45.5146ZM23.8757 36.3194C23.8215 36.7563 23.6234 37.1334 23.4885 37.3648C23.3312 37.6348 23.1308 37.9178 22.9128 38.2007C22.4751 38.7685 21.8808 39.4443 21.1931 40.1856C19.8144 41.6719 17.9545 43.5339 15.9764 45.5146L13.8223 43.3633C15.8153 41.3677 17.6293 39.551 18.9612 38.1152C19.6289 37.3955 20.1491 36.7995 20.5018 36.342C20.679 36.1121 20.7928 35.9442 20.8582 35.8319C20.9461 35.6812 20.8793 35.745 20.8545 35.9444L23.8757 36.3194ZM18.8759 28.8333C20.0401 30.0783 21.2746 31.3969 22.1955 32.5579C22.6552 33.1376 23.0767 33.727 23.3787 34.2865C23.6478 34.7848 23.9741 35.5267 23.8757 36.3194L20.8545 35.9445C20.8295 36.1462 20.9118 36.1252 20.6999 35.7327C20.521 35.4014 20.2247 34.9722 19.8103 34.4497C18.9828 33.4064 17.8435 32.1865 16.6523 30.9126L18.8759 28.8333ZM14.85 24.2626C14.9442 23.9224 14.7796 23.8086 14.9707 24.1804C15.1182 24.4673 15.3843 24.8621 15.7805 25.3646C16.5691 26.3647 17.6855 27.5603 18.8759 28.8333L16.6523 30.9126C15.4916 29.6713 14.2752 28.3723 13.3899 27.2495C12.9492 26.6906 12.5431 26.1168 12.2632 25.5721C12.0269 25.1125 11.6796 24.3041 11.9161 23.4502L14.85 24.2626ZM26.2687 21.822C23.5897 22.3015 20.5791 22.841 18.1931 23.4237C16.9939 23.7166 16.0147 24.0058 15.3361 24.2825C14.993 24.4223 14.7878 24.5347 14.6843 24.607C14.5355 24.7108 14.7518 24.6172 14.85 24.2626L11.9161 23.4502C12.1071 22.7603 12.6207 22.3348 12.942 22.1105C13.3085 21.8547 13.7462 21.643 14.187 21.4634C15.076 21.101 16.2284 20.7697 17.4708 20.4663C19.968 19.8564 23.0805 19.3 25.7324 18.8253L26.2687 21.822ZM32.5738 20.4526C32.0298 20.6989 31.065 20.9161 30.0764 21.116C29.0136 21.3308 27.6852 21.5685 26.2687 21.822L25.7324 18.8253C27.1605 18.5697 28.4511 18.3387 29.4731 18.132C29.9839 18.0287 30.4113 17.9348 30.7454 17.8503C30.9121 17.8081 31.0461 17.7707 31.15 17.7382C31.2014 17.7221 31.2415 17.7085 31.2716 17.6975C31.2865 17.6921 31.2978 17.6877 31.306 17.6844C31.31 17.6828 31.313 17.6815 31.3151 17.6806C31.3172 17.6797 31.3183 17.6793 31.3182 17.6793L32.5738 20.4526ZM34.4924 13.4826C34.4886 14.7648 34.487 16.1537 34.3436 17.279C34.2718 17.8421 34.154 18.4354 33.9341 18.9591C33.7187 19.4722 33.321 20.1143 32.5738 20.4526L31.3182 17.6793C31.0755 17.7892 31.0572 17.9472 31.1272 17.7805C31.1928 17.6244 31.2665 17.3422 31.3237 16.894C31.4381 15.9968 31.4441 14.8202 31.448 13.4736L34.4924 13.4826ZM35.0439 8.23564C35.0577 8.22357 34.9736 8.29527 34.8694 8.59784C34.7693 8.88865 34.6858 9.28959 34.6249 9.80759C34.5021 10.852 34.4964 12.1241 34.4924 13.4826L31.448 13.4736C31.4519 12.1647 31.4542 10.7042 31.6014 9.45216C31.6755 8.82192 31.7924 8.18364 31.9909 7.60689C32.1854 7.0419 32.4982 6.41771 33.0397 5.94406L35.0439 8.23564ZM52.4835 10.7479C48.6975 10.0151 44.3972 9.18305 40.8745 8.68163C39.1088 8.43028 37.5863 8.26919 36.4439 8.23898C35.8696 8.22378 35.4407 8.24337 35.1475 8.2857C34.7853 8.338 34.8637 8.39321 35.0439 8.23564L33.0397 5.94407C33.5621 5.48721 34.2466 5.3399 34.7124 5.27263C35.2473 5.19539 35.8685 5.17837 36.5244 5.19572C37.8426 5.23058 39.5015 5.41117 41.3035 5.66769C44.9165 6.18197 49.2972 7.03034 53.062 7.75911L52.4835 10.7479ZM61.2875 12.2048C60.5622 12.2048 59.2944 12.012 57.847 11.7586C56.3448 11.4954 54.4841 11.1352 52.4835 10.7479L53.062 7.75911C55.0718 8.14814 56.9026 8.50248 58.3723 8.75987C59.8968 9.02689 60.8811 9.16052 61.2875 9.16052V12.2048ZM71.8251 7.97456C69.7175 9.00888 67.6078 10.0446 65.8275 10.8202C64.937 11.2082 64.1009 11.5435 63.3694 11.7842C62.6755 12.0125 61.9345 12.2048 61.2875 12.2048V9.16052C61.4226 9.16052 61.7767 9.10335 62.4179 8.89237C63.0214 8.6938 63.7603 8.40013 64.6116 8.02923C66.3152 7.28706 68.3568 6.2855 70.4839 5.2416L71.8251 7.97456ZM82.5451 3.52216C82.2881 3.52216 81.7969 3.60862 81.0299 3.85307C80.294 4.0876 79.4144 4.4308 78.4247 4.85642C76.4439 5.70834 74.1333 6.84181 71.8251 7.97456L70.4839 5.2416C72.7725 4.11851 75.1568 2.94795 77.2219 2.05978C78.2553 1.61537 79.2363 1.22951 80.1055 0.9525C80.9435 0.685407 81.8017 0.477839 82.5451 0.477839V3.52216ZM92.055 8.18437C90.0796 7.01087 88.0731 5.8196 86.3051 4.91928C85.4225 4.46984 84.6309 4.10934 83.957 3.86408C83.2573 3.6094 82.7985 3.52216 82.5451 3.52216V0.477839C83.3316 0.477839 84.1878 0.708397 84.9982 1.00333C85.8345 1.30769 86.7483 1.72862 87.6866 2.20645C89.5604 3.16065 91.6575 4.40724 93.6099 5.56705L92.055 8.18437ZM100.509 12.2048C99.895 12.2048 99.2442 12.0003 98.6901 11.7843C98.0961 11.5527 97.4323 11.2334 96.7377 10.8695C95.3497 10.1422 93.709 9.16694 92.055 8.18437L93.6099 5.56705C95.2866 6.56314 96.8501 7.49141 98.1507 8.17292C98.8005 8.51339 99.352 8.77484 99.7959 8.9479C100.017 9.034 100.192 9.09087 100.327 9.12494C100.467 9.16074 100.521 9.16052 100.509 9.16052V12.2048ZM110.556 8.42105C108.413 9.3764 106.338 10.3017 104.643 10.9871C103.796 11.3297 103.019 11.6228 102.359 11.8324C101.751 12.0259 101.077 12.2048 100.509 12.2048V9.16052C100.507 9.16052 100.581 9.15822 100.766 9.1177C100.939 9.07974 101.162 9.01878 101.437 8.93119C101.989 8.75578 102.684 8.49553 103.502 8.1649C105.136 7.50386 107.157 6.60325 109.316 5.64053L110.556 8.42105ZM123.563 3.52216C123.206 3.52216 122.568 3.63429 121.625 3.9123C120.714 4.18071 119.629 4.56928 118.424 5.04199C116.015 5.98778 113.227 7.23012 110.556 8.42105L109.316 5.64053C111.971 4.45722 114.825 3.18417 117.312 2.20813C118.556 1.71992 119.733 1.29595 120.764 0.992068C121.763 0.697776 122.749 0.477839 123.563 0.477839V3.52216ZM131.319 8.11021C129.78 6.92823 128.247 5.75238 126.822 4.86679C125.334 3.9426 124.247 3.52216 123.563 3.52216V0.477839C125.18 0.477839 126.911 1.33859 128.428 2.28078C130.007 3.26156 131.665 4.53729 133.174 5.69607L131.319 8.11021ZM138.533 12.2048C137.885 12.2048 137.255 11.9982 136.719 11.7609C136.163 11.5152 135.585 11.1805 135.011 10.8091C133.868 10.0697 132.584 9.08248 131.319 8.11021L133.174 5.69607C134.47 6.6919 135.646 7.59449 136.664 8.25279C137.171 8.58028 137.599 8.82147 137.95 8.97686C138.321 9.14073 138.498 9.16052 138.533 9.16052V12.2048ZM145.079 10.3627C143.879 10.8057 142.655 11.2575 141.569 11.5967C140.525 11.9226 139.429 12.2048 138.533 12.2048V9.16052C138.92 9.16052 139.622 9.01546 140.662 8.69075C141.659 8.37929 142.804 7.95711 144.025 7.50663L145.079 10.3627ZM151.995 8.48449C152.009 8.4903 151.971 8.47149 151.85 8.46034C151.732 8.44941 151.567 8.44876 151.348 8.46844C150.905 8.50829 150.341 8.62165 149.665 8.80475C148.309 9.17184 146.714 9.75919 145.079 10.3627L144.025 7.50663C145.623 6.91677 147.356 6.27607 148.869 5.86628C149.627 5.66093 150.383 5.49865 151.076 5.43636C151.736 5.37702 152.517 5.38978 153.215 5.69521L151.995 8.48449ZM153.09 13.601C152.912 12.1536 152.744 10.8185 152.478 9.77498C152.346 9.25598 152.208 8.8891 152.077 8.6526C151.942 8.40747 151.89 8.43829 151.995 8.48449L153.215 5.69521C153.963 6.02206 154.437 6.62927 154.741 7.1795C155.05 7.73835 155.266 8.38578 155.428 9.02325C155.752 10.2927 155.94 11.8391 156.112 13.2276L153.09 13.601ZM155.402 20.3634C154.8 19.9941 154.437 19.4257 154.209 18.9474C153.972 18.4503 153.803 17.8846 153.672 17.325C153.411 16.2113 153.246 14.858 153.09 13.601L156.112 13.2276C156.273 14.5356 156.42 15.7098 156.636 16.6316C156.743 17.0897 156.853 17.4187 156.957 17.6365C157.07 17.873 157.11 17.8396 156.994 17.7686L155.402 20.3634ZM166.633 18.5995C164.487 19.2248 162.206 19.8899 160.324 20.311C159.385 20.521 158.492 20.6828 157.734 20.742C157.354 20.7717 156.969 20.7791 156.605 20.741C156.263 20.705 155.815 20.6166 155.402 20.3634L156.994 17.7686C156.854 17.6829 156.789 17.6992 156.923 17.7133C157.037 17.7253 157.224 17.7283 157.496 17.707C158.042 17.6643 158.772 17.5384 159.659 17.3401C161.428 16.9445 163.606 16.3106 165.782 15.6767L166.633 18.5995Z" fill="black"/>
<path d="M68.75 36.3594C68.4844 36.9062 67.9505 38.0885 67.1484 39.9062C66.4818 41.4271 65.9141 42.6198 65.4453 43.4844C64.6328 44.9844 64.1979 45.7786 64.1406 45.8672C63.8333 46.3203 63.4792 46.5469 63.0781 46.5469C62.7917 46.5469 62.5391 46.4531 62.3203 46.2656C62.0807 46.0573 61.9609 45.7995 61.9609 45.4922C61.9609 45.237 62.5052 44.1641 63.5938 42.2734C63.1927 41.6953 62.6172 40.8177 61.8672 39.6406C61.3047 38.776 60.4792 37.4714 59.3906 35.7266C59.2865 35.5495 59.2344 35.3646 59.2344 35.1719C59.2344 34.8698 59.3516 34.6146 59.5859 34.4062C59.8047 34.2135 60.0599 34.1172 60.3516 34.1172C60.6953 34.1172 61.0078 34.2917 61.2891 34.6406L61.875 35.5781C61.9115 35.6406 62.3594 36.401 63.2188 37.8594C63.7604 38.7917 64.2396 39.5286 64.6562 40.0703C65.0521 39.2734 65.6224 38.0677 66.3672 36.4531C66.5234 36.0938 66.7578 35.5495 67.0703 34.8203C67.2682 34.3516 67.6068 34.1172 68.0859 34.1172C68.3724 34.1172 68.625 34.2109 68.8438 34.3984C69.0833 34.6016 69.2031 34.8568 69.2031 35.1641C69.2031 35.3411 69.0521 35.7396 68.75 36.3594ZM73.5078 46.4609C72.5443 46.4609 71.7161 46.1302 71.0234 45.4688C70.263 44.7448 69.8646 43.7786 69.8281 42.5703C69.7917 41.4193 70.1068 40.3932 70.7734 39.4922C71.5651 38.4297 72.6667 37.8984 74.0781 37.8984C75.1198 37.8984 75.9479 38.3151 76.5625 39.1484C77.1146 39.8984 77.3906 40.8281 77.3906 41.9375C77.3906 43.1458 77.0677 44.1771 76.4219 45.0312C75.6979 45.9844 74.7266 46.4609 73.5078 46.4609ZM73.9766 39.9609C73.3359 39.9557 72.8307 40.2474 72.4609 40.8359C72.1484 41.3307 71.9922 41.9089 71.9922 42.5703C71.9922 43.1953 72.1693 43.6745 72.5234 44.0078C72.8047 44.2734 73.1328 44.4062 73.5078 44.4062C73.9609 44.4062 74.3542 44.2526 74.6875 43.9453C75.0677 43.5859 75.2708 43.099 75.2969 42.4844C75.3646 40.8073 74.9245 39.9661 73.9766 39.9609ZM85.5547 41.4844C85.5547 41.8333 85.5573 42.3594 85.5625 43.0625C85.5677 43.7656 85.5703 44.2917 85.5703 44.6406C85.5703 44.75 85.5781 44.9141 85.5938 45.1328C85.6146 45.3464 85.625 45.5078 85.625 45.6172C85.625 45.9089 85.5182 46.1484 85.3047 46.3359C85.0964 46.5286 84.8385 46.625 84.5312 46.625C84.099 46.625 83.7839 46.4297 83.5859 46.0391C82.9193 46.2839 82.2292 46.4062 81.5156 46.4062C80.776 46.4062 80.1536 46.25 79.6484 45.9375C79.0807 45.5781 78.7422 45.0547 78.6328 44.3672C78.4297 43.0651 78.3281 41.901 78.3281 40.875C78.3281 40.1979 78.4062 39.4245 78.5625 38.5547C78.6667 37.9661 79.0182 37.6719 79.6172 37.6719C79.9193 37.6719 80.1771 37.7682 80.3906 37.9609C80.6042 38.1484 80.7109 38.388 80.7109 38.6797C80.7109 38.9089 80.6719 39.2682 80.5938 39.7578C80.5208 40.2474 80.4844 40.6198 80.4844 40.875C80.4844 41.6094 80.5078 42.2526 80.5547 42.8047C80.6068 43.3516 80.6823 43.8047 80.7812 44.1641C80.9115 44.2214 81.0365 44.2656 81.1562 44.2969C81.2812 44.3281 81.401 44.3438 81.5156 44.3438C82.0938 44.3438 82.7292 44.2604 83.4219 44.0938C83.4219 43.6927 83.4193 43.237 83.4141 42.7266C83.4036 42.1172 83.3984 41.6797 83.3984 41.4141C83.3984 40.3464 83.4479 39.4245 83.5469 38.6484C83.625 38.0286 83.9792 37.7188 84.6094 37.7188C84.9167 37.7188 85.1797 37.8151 85.3984 38.0078C85.6172 38.2005 85.7188 38.4427 85.7031 38.7344C85.6042 40.7188 85.5547 41.6354 85.5547 41.4844ZM96 39.0859C96.7865 38.1745 97.5312 37.7188 98.2344 37.7188C99.0365 37.7188 99.625 38.0234 100 38.6328C100.318 38.3516 100.669 38.1406 101.055 38C101.44 37.8594 101.857 37.7891 102.305 37.7891C103.326 37.7891 104.018 38.2969 104.383 39.3125C104.456 39.5208 104.568 40.2266 104.719 41.4297C104.865 42.2734 105.052 43.6797 105.281 45.6484C105.302 45.9453 105.201 46.1901 104.977 46.3828C104.753 46.5755 104.49 46.6719 104.188 46.6719C103.589 46.6719 103.237 46.375 103.133 45.7812C103.039 45.2448 102.943 44.487 102.844 43.5078C102.74 42.4349 102.654 41.6745 102.586 41.2266C102.445 40.2943 102.266 39.8281 102.047 39.8281C101.927 39.8281 101.654 39.9479 101.227 40.1875C100.799 40.4271 100.487 40.6328 100.289 40.8047C100.289 41.3984 100.359 42.2526 100.5 43.3672C100.646 44.5078 100.719 45.362 100.719 45.9297C100.719 46.2266 100.617 46.474 100.414 46.6719C100.211 46.8698 99.9531 46.9688 99.6406 46.9688C99.3281 46.9688 99.0703 46.8698 98.8672 46.6719C98.6641 46.474 98.5625 46.2266 98.5625 45.9297C98.5625 45.3359 98.4974 44.4635 98.3672 43.3125C98.2422 42.1562 98.1797 41.2812 98.1797 40.6875C98.1797 40.3542 98.151 40.0885 98.0938 39.8906C97.4896 40.2396 96.8828 40.8203 96.2734 41.6328C96.2474 41.6693 96.2031 41.724 96.1406 41.7969C96.1198 42.849 96.1094 43.6745 96.1094 44.2734C96.1094 44.4193 96.1042 44.6172 96.0938 44.8672C96.0833 45.112 96.0781 45.2943 96.0781 45.4141C96.0781 45.6953 95.9635 45.9167 95.7344 46.0781C95.526 46.2292 95.2682 46.3047 94.9609 46.3047C94.5182 46.3047 94.2188 46.112 94.0625 45.7266C93.9531 45.4661 93.8984 45.0521 93.8984 44.4844V41.5781C93.8984 41.3177 93.888 40.9375 93.8672 40.4375C93.8464 39.9323 93.8359 39.5495 93.8359 39.2891C93.8359 38.8255 93.9193 38.4062 94.0859 38.0312C94.2891 37.5625 94.5755 37.3281 94.9453 37.3281C95.237 37.3281 95.4974 37.4427 95.7266 37.6719C95.9557 37.8958 96.0703 38.1432 96.0703 38.4141C96.0703 38.3047 96.0469 38.5286 96 39.0859ZM113.258 41.4844C113.258 41.8333 113.26 42.3594 113.266 43.0625C113.271 43.7656 113.273 44.2917 113.273 44.6406C113.273 44.75 113.281 44.9141 113.297 45.1328C113.318 45.3464 113.328 45.5078 113.328 45.6172C113.328 45.9089 113.221 46.1484 113.008 46.3359C112.799 46.5286 112.542 46.625 112.234 46.625C111.802 46.625 111.487 46.4297 111.289 46.0391C110.622 46.2839 109.932 46.4062 109.219 46.4062C108.479 46.4062 107.857 46.25 107.352 45.9375C106.784 45.5781 106.445 45.0547 106.336 44.3672C106.133 43.0651 106.031 41.901 106.031 40.875C106.031 40.1979 106.109 39.4245 106.266 38.5547C106.37 37.9661 106.721 37.6719 107.32 37.6719C107.622 37.6719 107.88 37.7682 108.094 37.9609C108.307 38.1484 108.414 38.388 108.414 38.6797C108.414 38.9089 108.375 39.2682 108.297 39.7578C108.224 40.2474 108.188 40.6198 108.188 40.875C108.188 41.6094 108.211 42.2526 108.258 42.8047C108.31 43.3516 108.385 43.8047 108.484 44.1641C108.615 44.2214 108.74 44.2656 108.859 44.2969C108.984 44.3281 109.104 44.3438 109.219 44.3438C109.797 44.3438 110.432 44.2604 111.125 44.0938C111.125 43.6927 111.122 43.237 111.117 42.7266C111.107 42.1172 111.102 41.6797 111.102 41.4141C111.102 40.3464 111.151 39.4245 111.25 38.6484C111.328 38.0286 111.682 37.7188 112.312 37.7188C112.62 37.7188 112.883 37.8151 113.102 38.0078C113.32 38.2005 113.422 38.4427 113.406 38.7344C113.307 40.7188 113.258 41.6354 113.258 41.4844ZM120.242 40.2812C119.727 40.2812 119.417 40.0651 119.312 39.6328C119.104 39.5964 118.891 39.5781 118.672 39.5781C117.417 39.5781 116.789 39.75 116.789 40.0938C116.789 40.2969 117.167 40.5703 117.922 40.9141C118.953 41.388 119.651 41.7578 120.016 42.0234C120.771 42.5703 121.148 43.1875 121.148 43.875C121.148 44.7708 120.732 45.4505 119.898 45.9141C119.227 46.2839 118.401 46.4688 117.422 46.4688C116.729 46.4688 116.096 46.362 115.523 46.1484C114.742 45.8568 114.352 45.4271 114.352 44.8594C114.352 44.3385 114.661 44.0781 115.281 44.0781C115.521 44.0781 115.867 44.1536 116.32 44.3047C116.773 44.4557 117.122 44.5312 117.367 44.5312C118.424 44.5312 118.956 44.3177 118.961 43.8906C118.961 43.625 118.594 43.3307 117.859 43.0078C116.786 42.5339 116.099 42.1927 115.797 41.9844C115.062 41.4688 114.695 40.8411 114.695 40.1016C114.695 39.0547 115.25 38.349 116.359 37.9844C117.01 37.7708 118 37.6641 119.328 37.6641C119.849 37.6641 120.234 37.7318 120.484 37.8672C120.828 38.0495 121 38.3854 121 38.875C121 39.8125 120.747 40.2812 120.242 40.2812ZM128.055 39.7109C127.945 39.7109 127.815 39.7083 127.664 39.7031C127.518 39.6927 127.391 39.6875 127.281 39.6875C127.068 39.6875 126.82 39.7083 126.539 39.75C126.633 41.8542 126.68 43.2292 126.68 43.875C126.68 43.9427 126.682 44.0703 126.688 44.2578C126.693 44.4401 126.695 44.5885 126.695 44.7031C126.695 45.901 126.318 46.5 125.562 46.5C125.276 46.5 125.029 46.4115 124.82 46.2344C124.591 46.0469 124.477 45.8125 124.477 45.5312C124.477 45.3438 124.484 45.0625 124.5 44.6875C124.516 44.3125 124.523 44.0312 124.523 43.8438C124.523 43.2135 124.477 41.8646 124.383 39.7969C124.06 39.7812 123.57 39.7396 122.914 39.6719C122.263 39.599 121.938 39.2604 121.938 38.6562C121.938 38.3646 122.036 38.1172 122.234 37.9141C122.432 37.7109 122.688 37.6094 123 37.6094C123.193 37.6094 123.635 37.6406 124.328 37.7031C124.323 37.5365 124.31 37.2604 124.289 36.875C124.268 36.5417 124.258 36.2839 124.258 36.1016C124.258 35.8099 124.365 35.5677 124.578 35.375C124.792 35.1823 125.049 35.0859 125.352 35.0859C126.122 35.0859 126.508 35.7344 126.508 37.0312L126.492 37.6719C126.815 37.625 127.078 37.6016 127.281 37.6016C127.88 37.6016 128.289 37.6406 128.508 37.7188C128.924 37.8646 129.133 38.1823 129.133 38.6719C129.133 38.9688 129.031 39.2161 128.828 39.4141C128.625 39.612 128.367 39.7109 128.055 39.7109ZM140.734 46.3281C140.005 46.3281 139.312 46.2005 138.656 45.9453C138.464 46.138 138.229 46.2344 137.953 46.2344C137.672 46.2344 137.43 46.1406 137.227 45.9531C137.029 45.7656 136.93 45.5312 136.93 45.25C136.93 45.125 136.938 44.9349 136.953 44.6797C136.969 44.4193 136.977 44.2266 136.977 44.1016V35.25C136.977 34.875 137.06 34.5417 137.227 34.25C137.435 33.8802 137.732 33.6953 138.117 33.6953C138.674 33.6953 138.953 33.9974 138.953 34.6016C138.953 34.6693 138.943 34.7786 138.922 34.9297C138.906 35.0755 138.898 35.1823 138.898 35.25V38.2422C139.284 38.0286 139.654 37.8698 140.008 37.7656C140.362 37.6562 140.703 37.6016 141.031 37.6016C142.255 37.6016 143.245 38.0469 144 38.9375C144.703 39.7708 145.055 40.7812 145.055 41.9688C145.055 43.1771 144.646 44.2005 143.828 45.0391C142.995 45.8984 141.964 46.3281 140.734 46.3281ZM141.031 39.6016C140.76 39.6016 140.448 39.6797 140.094 39.8359C139.74 39.9922 139.341 40.2266 138.898 40.5391C138.893 41.0339 138.893 42.1406 138.898 43.8594C139.612 44.1667 140.224 44.3203 140.734 44.3203C141.396 44.3203 141.94 44.099 142.367 43.6562C142.794 43.2083 143.008 42.6458 143.008 41.9688C143.008 41.2917 142.833 40.7318 142.484 40.2891C142.12 39.8307 141.635 39.6016 141.031 39.6016ZM150.461 46.3594C149.216 46.3594 148.198 46.0625 147.406 45.4688C146.531 44.8125 146.094 43.888 146.094 42.6953C146.094 41.3776 146.44 40.263 147.133 39.3516C147.904 38.3411 148.943 37.8359 150.25 37.8359C151.156 37.8359 151.909 37.9818 152.508 38.2734C153.294 38.6589 153.688 39.2578 153.688 40.0703C153.688 40.6432 153.367 41.151 152.727 41.5938C152.435 41.7969 151.849 42.0938 150.969 42.4844L148.336 43.6484C148.586 43.9193 148.888 44.1224 149.242 44.2578C149.596 44.3932 150.003 44.4609 150.461 44.4609C151.159 44.4609 151.75 44.3177 152.234 44.0312C152.667 43.776 153.013 43.6484 153.273 43.6484C153.815 43.6484 154.086 43.9115 154.086 44.4375C154.086 45.0312 153.651 45.5156 152.781 45.8906C152.052 46.2031 151.279 46.3594 150.461 46.3594ZM150.25 39.7266C149.766 39.7266 149.352 39.888 149.008 40.2109C148.664 40.5339 148.388 41.0182 148.18 41.6641C148.768 41.4089 149.354 41.1562 149.938 40.9062C150.641 40.5885 151.201 40.2943 151.617 40.0234C151.268 39.8255 150.812 39.7266 150.25 39.7266ZM61.3281 60.8516C61.7083 60.4766 62.1146 60.1979 62.5469 60.0156C62.9844 59.8281 63.4505 59.7344 63.9453 59.7344C64.8359 59.7344 65.4766 59.9844 65.8672 60.4844C66.1589 60.8594 66.3359 61.4349 66.3984 62.2109C66.4245 62.8516 66.4531 63.4948 66.4844 64.1406C66.5677 64.9792 66.6198 65.4896 66.6406 65.6719C66.7135 66.25 66.8021 66.7552 66.9062 67.1875C66.9323 67.2969 66.9453 67.3932 66.9453 67.4766C66.9453 67.7682 66.8333 68.0078 66.6094 68.1953C66.3906 68.388 66.1328 68.4844 65.8359 68.4844C65.3099 68.4844 64.9688 68.224 64.8125 67.7031C64.6875 67.2812 64.5729 66.6875 64.4688 65.9219C64.375 65.1875 64.3281 64.5833 64.3281 64.1094C64.3281 63.9792 64.3333 63.7839 64.3438 63.5234C64.3594 63.2578 64.3672 63.0599 64.3672 62.9297C64.3672 62.5443 64.362 62.3203 64.3516 62.2578C64.3047 61.9714 64.1693 61.8281 63.9453 61.8281C63.3672 61.8281 62.8438 62.0938 62.375 62.625C62.1354 62.8906 61.8073 63.3958 61.3906 64.1406C61.3906 66.026 61.2995 67.1615 61.1172 67.5469C60.9141 67.974 60.5911 68.1875 60.1484 68.1875C59.8568 68.1875 59.5964 68.0911 59.3672 67.8984C59.1432 67.7005 59.0312 67.4583 59.0312 67.1719C59.0312 67.0729 59.0599 66.9349 59.1172 66.7578C59.1536 66.6432 59.1849 65.9401 59.2109 64.6484C59.1849 63.6016 59.1901 61.8594 59.2266 59.4219L59.2422 59.1641C59.2734 58.5495 59.2891 58.138 59.2891 57.9297C59.2891 57.7682 59.263 57.5312 59.2109 57.2188C59.1641 56.901 59.1406 56.6615 59.1406 56.5C59.1406 56.2031 59.2474 55.9609 59.4609 55.7734C59.6745 55.5807 59.9323 55.4844 60.2344 55.4844C60.75 55.4844 61.0964 55.7604 61.2734 56.3125C61.3724 56.625 61.4219 57.1042 61.4219 57.75C61.4219 58.2708 61.4062 58.7995 61.375 59.3359C61.3438 59.8464 61.3281 60.3516 61.3281 60.8516ZM75 68.5156C74.7604 68.5156 74.3802 68.2552 73.8594 67.7344C73.3802 67.9635 72.9583 68.1354 72.5938 68.25C72.2292 68.3698 71.9193 68.4297 71.6641 68.4297C70.4089 68.4297 69.4661 68.0938 68.8359 67.4219C68.2109 66.75 67.8984 65.7448 67.8984 64.4062C67.8984 63.151 68.362 62.0781 69.2891 61.1875C70.2161 60.2917 71.3255 59.8438 72.6172 59.8438C73.112 59.8438 73.6849 59.9844 74.3359 60.2656C75.1224 60.6042 75.5156 60.9974 75.5156 61.4453C75.5156 61.6328 75.4557 61.7969 75.3359 61.9375C75.2839 62.1458 75.2422 62.4089 75.2109 62.7266C75.1849 63.0391 75.1719 63.4062 75.1719 63.8281C75.1719 64.8229 75.2422 65.5391 75.3828 65.9766C75.3984 66.0234 75.5182 66.2943 75.7422 66.7891C75.9453 67.237 76.0469 67.4922 76.0469 67.5547C76.0469 67.8307 75.9401 68.0599 75.7266 68.2422C75.5182 68.4245 75.276 68.5156 75 68.5156ZM73.0625 63.1562C73.0625 62.9896 73.0729 62.7995 73.0938 62.5859C73.1198 62.3672 73.1562 62.125 73.2031 61.8594C73.099 61.8073 73.0052 61.7708 72.9219 61.75C72.8438 61.724 72.776 61.7109 72.7188 61.7109C72.0104 61.7109 71.3906 61.9896 70.8594 62.5469C70.3281 63.099 70.0625 63.7396 70.0625 64.4688C70.0625 65.1667 70.1875 65.6927 70.4375 66.0469C70.6875 66.3958 71.0625 66.5703 71.5625 66.5703C71.8854 66.5703 72.1901 66.5182 72.4766 66.4141C72.7682 66.3047 73.0417 66.1458 73.2969 65.9375C73.1406 64.6979 73.0625 63.7708 73.0625 63.1562ZM80.7578 68.4609C80.3099 68.4609 79.8385 68.4089 79.3438 68.3047L79.3359 71.4922C79.3359 71.7943 79.2344 72.0443 79.0312 72.2422C78.8281 72.4401 78.5703 72.5391 78.2578 72.5391C77.9453 72.5391 77.6875 72.4401 77.4844 72.2422C77.2812 72.0443 77.1797 71.7943 77.1797 71.4922C77.1797 71.2474 77.1849 70.276 77.1953 68.5781C77.2057 67.3177 77.2057 66.2891 77.1953 65.4922C77.1797 64.3672 77.1432 63.3984 77.0859 62.5859C77.0078 61.4661 76.9688 60.9531 76.9688 61.0469C76.9688 60.6146 77.0651 60.2448 77.2578 59.9375C77.4818 59.5885 77.7839 59.4141 78.1641 59.4141C78.4557 59.4141 78.7005 59.513 78.8984 59.7109C79.0964 59.9089 79.1953 60.1458 79.1953 60.4219L79.1875 60.5C79.5365 60.3021 79.8854 60.1562 80.2344 60.0625C80.5885 59.9635 80.9427 59.9141 81.2969 59.9141C82.4948 59.9141 83.3698 60.4219 83.9219 61.4375C84.3333 62.2031 84.5391 63.1953 84.5391 64.4141C84.5391 65.5547 84.2135 66.5 83.5625 67.25C82.8646 68.0573 81.9297 68.4609 80.7578 68.4609ZM81.2969 62C80.9688 62 80.6354 62.0781 80.2969 62.2344C79.9583 62.3854 79.6172 62.6146 79.2734 62.9219C79.3359 63.9948 79.3672 65.0703 79.3672 66.1484C79.8307 66.2995 80.2943 66.375 80.7578 66.375C81.2943 66.375 81.7057 66.1849 81.9922 65.8047C82.2526 65.4609 82.3828 64.9974 82.3828 64.4141C82.3828 63.7109 82.3516 63.224 82.2891 62.9531C82.138 62.3177 81.8073 62 81.2969 62ZM89.3203 68.4609C88.8724 68.4609 88.401 68.4089 87.9062 68.3047L87.8984 71.4922C87.8984 71.7943 87.7969 72.0443 87.5938 72.2422C87.3906 72.4401 87.1328 72.5391 86.8203 72.5391C86.5078 72.5391 86.25 72.4401 86.0469 72.2422C85.8438 72.0443 85.7422 71.7943 85.7422 71.4922C85.7422 71.2474 85.7474 70.276 85.7578 68.5781C85.7682 67.3177 85.7682 66.2891 85.7578 65.4922C85.7422 64.3672 85.7057 63.3984 85.6484 62.5859C85.5703 61.4661 85.5312 60.9531 85.5312 61.0469C85.5312 60.6146 85.6276 60.2448 85.8203 59.9375C86.0443 59.5885 86.3464 59.4141 86.7266 59.4141C87.0182 59.4141 87.263 59.513 87.4609 59.7109C87.6589 59.9089 87.7578 60.1458 87.7578 60.4219L87.75 60.5C88.099 60.3021 88.4479 60.1562 88.7969 60.0625C89.151 59.9635 89.5052 59.9141 89.8594 59.9141C91.0573 59.9141 91.9323 60.4219 92.4844 61.4375C92.8958 62.2031 93.1016 63.1953 93.1016 64.4141C93.1016 65.5547 92.776 66.5 92.125 67.25C91.4271 68.0573 90.4922 68.4609 89.3203 68.4609ZM89.8594 62C89.5312 62 89.1979 62.0781 88.8594 62.2344C88.5208 62.3854 88.1797 62.6146 87.8359 62.9219C87.8984 63.9948 87.9297 65.0703 87.9297 66.1484C88.3932 66.2995 88.8568 66.375 89.3203 66.375C89.8568 66.375 90.2682 66.1849 90.5547 65.8047C90.8151 65.4609 90.9453 64.9974 90.9453 64.4141C90.9453 63.7109 90.9141 63.224 90.8516 62.9531C90.7005 62.3177 90.3698 62 89.8594 62ZM102.039 61.3984C101.471 62.5807 100.573 64.4375 99.3438 66.9688C98.6771 68.3281 98.1693 69.4557 97.8203 70.3516C97.7109 70.6745 97.5391 71.1536 97.3047 71.7891C97.1172 72.2786 96.7839 72.5234 96.3047 72.5234C96.0078 72.5234 95.7474 72.4271 95.5234 72.2344C95.2995 72.0417 95.1875 71.7995 95.1875 71.5078C95.1875 71.0234 95.7396 69.5885 96.8438 67.2031C96.2708 66.0729 95.362 64.4089 94.1172 62.2109C93.9922 62.013 93.8646 61.8125 93.7344 61.6094C93.5938 61.3698 93.5234 61.151 93.5234 60.9531C93.5234 60.6719 93.6354 60.4245 93.8594 60.2109C94.0833 59.9974 94.3411 59.8906 94.6328 59.8906C94.9766 59.8906 95.2448 60.0182 95.4375 60.2734C96.1771 61.2578 97.0391 62.7396 98.0234 64.7188C98.5807 63.4844 98.9193 62.7396 99.0391 62.4844C99.4089 61.7083 99.7708 61.026 100.125 60.4375C100.349 60.0625 100.656 59.875 101.047 59.875C101.339 59.875 101.599 59.974 101.828 60.1719C102.057 60.3698 102.172 60.612 102.172 60.8984C102.172 61.0495 102.128 61.2161 102.039 61.3984ZM116.602 62.3672C116.555 63.1641 116.193 63.5625 115.516 63.5625C114.859 63.5625 114.531 63.224 114.531 62.5469L114.492 61.7578C113.32 61.9453 112.482 62.5469 111.977 63.5625L111.984 67.4922C111.984 67.7891 111.883 68.0339 111.68 68.2266C111.477 68.4245 111.219 68.5234 110.906 68.5234C110.583 68.5234 110.333 68.4193 110.156 68.2109C109.99 68.0234 109.906 67.7839 109.906 67.4922V62.375C109.906 62.2135 109.911 61.974 109.922 61.6562C109.932 61.3333 109.938 61.0911 109.938 60.9297C109.938 60.638 110.023 60.3958 110.195 60.2031C110.372 60.0052 110.622 59.9062 110.945 59.9062C111.523 59.9062 111.867 60.2031 111.977 60.7969C112.898 60.1094 113.922 59.7656 115.047 59.7656C116.089 59.7656 116.609 60.4583 116.609 61.8438C116.609 62.1094 116.607 62.2839 116.602 62.3672ZM119.523 58.6094C119.19 58.6094 118.901 58.4974 118.656 58.2734C118.411 58.0495 118.289 57.776 118.289 57.4531C118.289 57.1302 118.411 56.8568 118.656 56.6328C118.901 56.4089 119.19 56.2969 119.523 56.2969C119.857 56.2969 120.143 56.4089 120.383 56.6328C120.628 56.8568 120.75 57.1302 120.75 57.4531C120.75 57.776 120.628 58.0495 120.383 58.2734C120.143 58.4974 119.857 58.6094 119.523 58.6094ZM120.188 64.3359C120.188 64.6328 120.195 65.1094 120.211 65.7656C120.232 66.4219 120.242 66.8984 120.242 67.1953C120.242 67.4974 120.141 67.7474 119.938 67.9453C119.734 68.138 119.477 68.2344 119.164 68.2344C118.852 68.2344 118.594 68.138 118.391 67.9453C118.188 67.7474 118.086 67.4974 118.086 67.1953C118.086 66.8984 118.076 66.4219 118.055 65.7656C118.039 65.1094 118.031 64.6328 118.031 64.3359C118.031 63.8724 118.057 63.2917 118.109 62.5938C118.161 61.8958 118.188 61.3151 118.188 60.8516C118.188 60.5495 118.289 60.3021 118.492 60.1094C118.695 59.9115 118.953 59.8125 119.266 59.8125C119.578 59.8125 119.836 59.9115 120.039 60.1094C120.242 60.3021 120.344 60.5495 120.344 60.8516C120.344 61.3151 120.318 61.8958 120.266 62.5938C120.214 63.2917 120.188 63.8724 120.188 64.3359ZM129.469 63.3438C129.25 64.5677 129.12 65.8594 129.078 67.2188C129.026 68.901 128.745 70.1224 128.234 70.8828C127.552 71.8984 126.344 72.4062 124.609 72.4062C122.583 72.4062 121.57 72.0052 121.57 71.2031C121.57 70.9167 121.661 70.6849 121.844 70.5078C122.026 70.3307 122.266 70.2422 122.562 70.2422C122.797 70.2422 123.133 70.2865 123.57 70.375C124.008 70.4635 124.396 70.5078 124.734 70.5078C125.51 70.5078 126.083 70.2708 126.453 69.7969C126.807 69.3333 127.016 68.5964 127.078 67.5859C126.812 67.8568 126.513 68.0599 126.18 68.1953C125.846 68.3307 125.482 68.3984 125.086 68.3984C124.049 68.3984 123.206 68.0625 122.555 67.3906C121.909 66.7135 121.586 65.849 121.586 64.7969C121.586 63.3802 122.018 62.2344 122.883 61.3594C123.779 60.4531 124.99 60 126.516 60C127.005 60 127.427 60.0599 127.781 60.1797C128.135 60.2995 128.422 60.4818 128.641 60.7266C129.302 60.8047 129.633 61.1953 129.633 61.8984C129.633 62.2474 129.578 62.7292 129.469 63.3438ZM126.438 61.7812C125.557 61.7812 124.872 62.0703 124.383 62.6484C123.945 63.1745 123.727 63.8568 123.727 64.6953C123.727 65.3151 123.844 65.7812 124.078 66.0938C124.312 66.4062 124.664 66.5625 125.133 66.5625C125.56 66.5625 125.99 66.3151 126.422 65.8203C126.828 65.3516 127.06 64.888 127.117 64.4297C127.216 63.9297 127.331 63.151 127.461 62.0938C127.284 61.9896 127.109 61.9115 126.938 61.8594C126.766 61.8073 126.599 61.7812 126.438 61.7812ZM133.047 60.8516C133.427 60.4766 133.833 60.1979 134.266 60.0156C134.703 59.8281 135.169 59.7344 135.664 59.7344C136.555 59.7344 137.195 59.9844 137.586 60.4844C137.878 60.8594 138.055 61.4349 138.117 62.2109C138.143 62.8516 138.172 63.4948 138.203 64.1406C138.286 64.9792 138.339 65.4896 138.359 65.6719C138.432 66.25 138.521 66.7552 138.625 67.1875C138.651 67.2969 138.664 67.3932 138.664 67.4766C138.664 67.7682 138.552 68.0078 138.328 68.1953C138.109 68.388 137.852 68.4844 137.555 68.4844C137.029 68.4844 136.688 68.224 136.531 67.7031C136.406 67.2812 136.292 66.6875 136.188 65.9219C136.094 65.1875 136.047 64.5833 136.047 64.1094C136.047 63.9792 136.052 63.7839 136.062 63.5234C136.078 63.2578 136.086 63.0599 136.086 62.9297C136.086 62.5443 136.081 62.3203 136.07 62.2578C136.023 61.9714 135.888 61.8281 135.664 61.8281C135.086 61.8281 134.562 62.0938 134.094 62.625C133.854 62.8906 133.526 63.3958 133.109 64.1406C133.109 66.026 133.018 67.1615 132.836 67.5469C132.633 67.974 132.31 68.1875 131.867 68.1875C131.576 68.1875 131.315 68.0911 131.086 67.8984C130.862 67.7005 130.75 67.4583 130.75 67.1719C130.75 67.0729 130.779 66.9349 130.836 66.7578C130.872 66.6432 130.904 65.9401 130.93 64.6484C130.904 63.6016 130.909 61.8594 130.945 59.4219L130.961 59.1641C130.992 58.5495 131.008 58.138 131.008 57.9297C131.008 57.7682 130.982 57.5312 130.93 57.2188C130.883 56.901 130.859 56.6615 130.859 56.5C130.859 56.2031 130.966 55.9609 131.18 55.7734C131.393 55.5807 131.651 55.4844 131.953 55.4844C132.469 55.4844 132.815 55.7604 132.992 56.3125C133.091 56.625 133.141 57.1042 133.141 57.75C133.141 58.2708 133.125 58.7995 133.094 59.3359C133.062 59.8464 133.047 60.3516 133.047 60.8516ZM145.492 61.7109C145.383 61.7109 145.253 61.7083 145.102 61.7031C144.956 61.6927 144.828 61.6875 144.719 61.6875C144.505 61.6875 144.258 61.7083 143.977 61.75C144.07 63.8542 144.117 65.2292 144.117 65.875C144.117 65.9427 144.12 66.0703 144.125 66.2578C144.13 66.4401 144.133 66.5885 144.133 66.7031C144.133 67.901 143.755 68.5 143 68.5C142.714 68.5 142.466 68.4115 142.258 68.2344C142.029 68.0469 141.914 67.8125 141.914 67.5312C141.914 67.3438 141.922 67.0625 141.938 66.6875C141.953 66.3125 141.961 66.0312 141.961 65.8438C141.961 65.2135 141.914 63.8646 141.82 61.7969C141.497 61.7812 141.008 61.7396 140.352 61.6719C139.701 61.599 139.375 61.2604 139.375 60.6562C139.375 60.3646 139.474 60.1172 139.672 59.9141C139.87 59.7109 140.125 59.6094 140.438 59.6094C140.63 59.6094 141.073 59.6406 141.766 59.7031C141.76 59.5365 141.747 59.2604 141.727 58.875C141.706 58.5417 141.695 58.2839 141.695 58.1016C141.695 57.8099 141.802 57.5677 142.016 57.375C142.229 57.1823 142.487 57.0859 142.789 57.0859C143.56 57.0859 143.945 57.7344 143.945 59.0312L143.93 59.6719C144.253 59.625 144.516 59.6016 144.719 59.6016C145.318 59.6016 145.727 59.6406 145.945 59.7188C146.362 59.8646 146.57 60.1823 146.57 60.6719C146.57 60.9688 146.469 61.2161 146.266 61.4141C146.062 61.612 145.805 61.7109 145.492 61.7109ZM153.508 62.9453C153.471 62.9714 153.042 63.2734 152.219 63.8516C151.693 64.2161 151.292 64.5521 151.016 64.8594C150.766 65.1354 150.49 65.2734 150.188 65.2734C149.891 65.2734 149.63 65.1667 149.406 64.9531C149.182 64.7344 149.07 64.4844 149.07 64.2031C149.07 63.7865 149.406 63.3203 150.078 62.8047C150.698 62.3672 151.318 61.9271 151.938 61.4844C152.609 60.974 152.945 60.513 152.945 60.1016C152.945 59.6172 152.698 59.1641 152.203 58.7422C151.714 58.3151 151.203 58.1016 150.672 58.1016C150.391 58.1016 150.005 58.263 149.516 58.5859C149.026 58.9036 148.68 59.0625 148.477 59.0625C148.169 59.0625 147.909 58.9505 147.695 58.7266C147.487 58.4974 147.383 58.2448 147.383 57.9688C147.383 57.4479 147.839 56.9714 148.75 56.5391C149.521 56.1693 150.161 55.9844 150.672 55.9844C151.802 55.9844 152.823 56.401 153.734 57.2344C154.651 58.0677 155.109 59.0234 155.109 60.1016C155.109 61.1693 154.576 62.1172 153.508 62.9453ZM149.758 68.5625C149.461 68.5625 149.19 68.4688 148.945 68.2812C148.68 68.0729 148.547 67.8151 148.547 67.5078C148.547 67.1536 148.651 66.8255 148.859 66.5234C149.109 66.1536 149.445 65.9688 149.867 65.9688C150.221 65.9688 150.497 66.1016 150.695 66.3672C150.852 66.5859 150.93 66.8438 150.93 67.1406C150.93 67.4583 150.844 67.7552 150.672 68.0312C150.453 68.3854 150.148 68.5625 149.758 68.5625ZM60.2734 90.2344C59.862 90.2188 59.4479 89.7344 59.0312 88.7812C58.7552 88.1667 58.5182 87.4583 58.3203 86.6562C57.9349 86.7135 57.3047 86.7708 56.4297 86.8281C55.6068 86.8854 54.9766 86.9531 54.5391 87.0312C54.2995 87.6042 53.8828 88.4661 53.2891 89.6172C53.0599 89.9922 52.7422 90.1797 52.3359 90.1797C52.0495 90.1797 51.7917 90.0833 51.5625 89.8906C51.3333 89.6927 51.2188 89.4427 51.2188 89.1406C51.2188 88.875 51.599 87.974 52.3594 86.4375C52.2865 86.276 52.2552 86.125 52.2656 85.9844C52.2865 85.7344 52.5391 85.5391 53.0234 85.3984C53.763 84.1172 54.5859 82.7891 55.4922 81.4141C56.7943 79.4401 57.5964 78.4531 57.8984 78.4531C58.4714 78.4531 58.8542 78.7995 59.0469 79.4922C59.151 80.0495 59.3151 80.8854 59.5391 82C59.8568 83.5 60.2448 85.2161 60.7031 87.1484C60.7396 87.2943 60.8724 87.638 61.1016 88.1797C61.2891 88.6276 61.3828 88.9635 61.3828 89.1875C61.3828 89.4896 61.2682 89.7422 61.0391 89.9453C60.8151 90.1484 60.5599 90.2448 60.2734 90.2344ZM57.3594 82.2188C56.9531 82.9167 56.3932 83.8672 55.6797 85.0703C55.9141 85.0182 56.2786 84.9766 56.7734 84.9453C57.3568 84.9089 57.724 84.8802 57.875 84.8594C57.75 84.1823 57.5781 83.3021 57.3594 82.2188ZM68.5078 84.2812C67.9922 84.2812 67.6823 84.0651 67.5781 83.6328C67.3698 83.5964 67.1562 83.5781 66.9375 83.5781C65.6823 83.5781 65.0547 83.75 65.0547 84.0938C65.0547 84.2969 65.4323 84.5703 66.1875 84.9141C67.2188 85.388 67.9167 85.7578 68.2812 86.0234C69.0365 86.5703 69.4141 87.1875 69.4141 87.875C69.4141 88.7708 68.9974 89.4505 68.1641 89.9141C67.4922 90.2839 66.6667 90.4688 65.6875 90.4688C64.9948 90.4688 64.362 90.362 63.7891 90.1484C63.0078 89.8568 62.6172 89.4271 62.6172 88.8594C62.6172 88.3385 62.9271 88.0781 63.5469 88.0781C63.7865 88.0781 64.1328 88.1536 64.5859 88.3047C65.0391 88.4557 65.388 88.5312 65.6328 88.5312C66.6901 88.5312 67.2214 88.3177 67.2266 87.8906C67.2266 87.625 66.8594 87.3307 66.125 87.0078C65.0521 86.5339 64.3646 86.1927 64.0625 85.9844C63.3281 85.4688 62.9609 84.8411 62.9609 84.1016C62.9609 83.0547 63.5156 82.349 64.625 81.9844C65.276 81.7708 66.2656 81.6641 67.5938 81.6641C68.1146 81.6641 68.5 81.7318 68.75 81.8672C69.0938 82.0495 69.2656 82.3854 69.2656 82.875C69.2656 83.8125 69.013 84.2812 68.5078 84.2812ZM74.1484 90.9688C73.8932 91.4792 73.6901 91.8802 73.5391 92.1719C73.362 92.5156 73.0781 92.6875 72.6875 92.6875C72.4115 92.6875 72.1771 92.599 71.9844 92.4219C71.7917 92.25 71.6953 92.0495 71.6953 91.8203C71.6953 91.6849 71.862 91.2812 72.1953 90.6094C72.4922 90.0156 72.7161 89.5964 72.8672 89.3516C73.0599 89.0443 73.3307 88.8906 73.6797 88.8906C73.9557 88.8906 74.1901 88.9792 74.3828 89.1562C74.5755 89.3333 74.6719 89.5365 74.6719 89.7656C74.6719 89.8698 74.4974 90.2708 74.1484 90.9688ZM94.6719 83.1172C94.125 85.1589 93.5755 87.013 93.0234 88.6797C92.8672 89.1484 92.612 89.6302 92.2578 90.125C92.0078 90.4688 91.6745 90.638 91.2578 90.6328C90.6016 90.6224 90.0859 89.9896 89.7109 88.7344C89.5703 88.2552 89.4036 87.362 89.2109 86.0547C89.1016 86.2839 89.0339 86.4375 89.0078 86.5156C88.737 87.1615 88.3411 88.1641 87.8203 89.5234C87.7422 89.7422 87.625 89.9167 87.4688 90.0469C87.25 90.3958 86.9245 90.5781 86.4922 90.5938C86.2474 90.6042 85.9896 90.3854 85.7188 89.9375C85.4323 89.4844 85.2005 88.901 85.0234 88.1875C84.862 87.5417 84.612 86.1354 84.2734 83.9688C84.2005 83.5 84.1641 83.1328 84.1641 82.8672C84.1641 82.5807 84.2708 82.3438 84.4844 82.1562C84.7031 81.9635 84.9635 81.8672 85.2656 81.8672C85.8281 81.8672 86.1745 82.1458 86.3047 82.7031C86.3724 82.9948 86.4297 83.3542 86.4766 83.7812C86.5391 84.3958 86.5781 84.7578 86.5938 84.8672C86.6615 85.2734 86.7656 85.9375 86.9062 86.8594C87.2917 85.8021 87.7344 84.487 88.2344 82.9141C88.4479 82.237 88.849 81.8984 89.4375 81.8984C90.0156 81.8984 90.3958 82.276 90.5781 83.0312C90.7083 83.5625 90.8464 84.2526 90.9922 85.1016C91.2057 86.3359 91.3359 87.0703 91.3828 87.3047C91.4297 87.1432 91.8385 85.5599 92.6094 82.5547C92.724 82.1068 93.0495 81.8828 93.5859 81.8828C93.8828 81.8828 94.1432 81.9792 94.3672 82.1719C94.5964 82.3646 94.7109 82.6042 94.7109 82.8906C94.7109 82.9427 94.6979 83.0182 94.6719 83.1172ZM97.4141 80.6094C97.0807 80.6094 96.7917 80.4974 96.5469 80.2734C96.3021 80.0495 96.1797 79.776 96.1797 79.4531C96.1797 79.1302 96.3021 78.8568 96.5469 78.6328C96.7917 78.4089 97.0807 78.2969 97.4141 78.2969C97.7474 78.2969 98.0339 78.4089 98.2734 78.6328C98.5182 78.8568 98.6406 79.1302 98.6406 79.4531C98.6406 79.776 98.5182 80.0495 98.2734 80.2734C98.0339 80.4974 97.7474 80.6094 97.4141 80.6094ZM98.0781 86.3359C98.0781 86.6328 98.0859 87.1094 98.1016 87.7656C98.1224 88.4219 98.1328 88.8984 98.1328 89.1953C98.1328 89.4974 98.0312 89.7474 97.8281 89.9453C97.625 90.138 97.3672 90.2344 97.0547 90.2344C96.7422 90.2344 96.4844 90.138 96.2812 89.9453C96.0781 89.7474 95.9766 89.4974 95.9766 89.1953C95.9766 88.8984 95.9661 88.4219 95.9453 87.7656C95.9297 87.1094 95.9219 86.6328 95.9219 86.3359C95.9219 85.8724 95.9479 85.2917 96 84.5938C96.0521 83.8958 96.0781 83.3151 96.0781 82.8516C96.0781 82.5495 96.1797 82.3021 96.3828 82.1094C96.5859 81.9115 96.8438 81.8125 97.1562 81.8125C97.4688 81.8125 97.7266 81.9115 97.9297 82.1094C98.1328 82.3021 98.2344 82.5495 98.2344 82.8516C98.2344 83.3151 98.2083 83.8958 98.1562 84.5938C98.1042 85.2917 98.0781 85.8724 98.0781 86.3359ZM106.273 90.5547C105.633 90.5547 105.276 90.2396 105.203 89.6094C105.13 89.0729 105.057 88.5339 104.984 87.9922C104.906 87.4193 104.867 86.8802 104.867 86.375C104.867 86.2396 104.875 86.0078 104.891 85.6797C104.911 85.3516 104.922 85.1198 104.922 84.9844C104.922 84.9479 104.927 84.8568 104.938 84.7109C104.948 84.5599 104.953 84.4375 104.953 84.3438C104.953 83.9115 104.841 83.6953 104.617 83.6953C104.138 83.6953 103.667 83.9766 103.203 84.5391C102.745 85.0964 102.385 85.8047 102.125 86.6641C102.115 86.8359 102.091 87.0651 102.055 87.3516C102.023 87.5859 102.008 87.8151 102.008 88.0391C102.008 88.1849 102.023 88.4062 102.055 88.7031C102.091 88.9948 102.109 89.2135 102.109 89.3594C102.109 89.6562 102.005 89.901 101.797 90.0938C101.594 90.2917 101.336 90.3906 101.023 90.3906C100.711 90.3906 100.453 90.2917 100.25 90.0938C100.047 89.901 99.9453 89.6562 99.9453 89.3594C99.9453 89.2135 99.9297 88.9948 99.8984 88.7031C99.8672 88.4062 99.8516 88.1849 99.8516 88.0391C99.8516 87.5391 99.888 86.8438 99.9609 85.9531C100.034 85.0625 100.07 84.3672 100.07 83.8672C100.07 83.7109 100.06 83.4792 100.039 83.1719C100.023 82.8594 100.016 82.6276 100.016 82.4766C100.016 82.1849 100.12 81.9453 100.328 81.7578C100.542 81.5651 100.802 81.4688 101.109 81.4688C101.792 81.4688 102.156 81.8776 102.203 82.6953L102.211 82.7812C102.971 82.0156 103.773 81.6328 104.617 81.6328C105.602 81.6328 106.281 82.0443 106.656 82.8672C106.906 83.4193 107.031 84.2448 107.031 85.3438V85.8984C107.026 86.138 107.023 86.3073 107.023 86.4062C107.023 86.8125 107.078 87.3359 107.188 87.9766C107.302 88.6172 107.359 89.138 107.359 89.5391C107.359 89.8307 107.255 90.0729 107.047 90.2656C106.839 90.4583 106.581 90.5547 106.273 90.5547ZM114.211 82.1484C114.279 80.3724 114.359 79.1458 114.453 78.4688C114.542 77.8542 114.88 77.5469 115.469 77.5469C115.776 77.5469 116.023 77.6458 116.211 77.8438C116.398 78.0417 116.492 78.2839 116.492 78.5703C116.492 79.3255 116.432 80.4505 116.312 81.9453C116.198 83.4401 116.141 84.5651 116.141 85.3203C116.141 87.1641 116.201 88.3984 116.32 89.0234C116.336 89.1068 116.344 89.1823 116.344 89.25C116.344 89.5365 116.24 89.7734 116.031 89.9609C115.823 90.1432 115.581 90.2344 115.305 90.2344C114.919 90.2344 114.633 90.0625 114.445 89.7188C114.091 89.9323 113.724 90.0911 113.344 90.1953C112.964 90.3047 112.57 90.3594 112.164 90.3594C110.997 90.3594 110.029 89.987 109.258 89.2422C108.471 88.4818 108.078 87.513 108.078 86.3359C108.078 84.9349 108.474 83.8047 109.266 82.9453C110.057 82.0807 111.091 81.6484 112.367 81.6484C112.758 81.6484 113.107 81.6901 113.414 81.7734C113.721 81.8568 113.987 81.9818 114.211 82.1484ZM114.055 84.6094C113.883 84.2812 113.659 84.0365 113.383 83.875C113.107 83.7135 112.779 83.6328 112.398 83.6328C111.628 83.6328 111.049 83.8568 110.664 84.3047C110.279 84.7474 110.086 85.4141 110.086 86.3047C110.086 86.8672 110.294 87.349 110.711 87.75C111.128 88.151 111.612 88.3516 112.164 88.3516C112.565 88.3516 112.87 88.3047 113.078 88.2109C113.219 88.1484 113.458 87.9818 113.797 87.7109C113.885 87.638 113.971 87.5573 114.055 87.4688C114.044 87.2188 114.044 86.2656 114.055 84.6094ZM121.117 90.4609C120.154 90.4609 119.326 90.1302 118.633 89.4688C117.872 88.7448 117.474 87.7786 117.438 86.5703C117.401 85.4193 117.716 84.3932 118.383 83.4922C119.174 82.4297 120.276 81.8984 121.688 81.8984C122.729 81.8984 123.557 82.3151 124.172 83.1484C124.724 83.8984 125 84.8281 125 85.9375C125 87.1458 124.677 88.1771 124.031 89.0312C123.307 89.9844 122.336 90.4609 121.117 90.4609ZM121.586 83.9609C120.945 83.9557 120.44 84.2474 120.07 84.8359C119.758 85.3307 119.602 85.9089 119.602 86.5703C119.602 87.1953 119.779 87.6745 120.133 88.0078C120.414 88.2734 120.742 88.4062 121.117 88.4062C121.57 88.4062 121.964 88.2526 122.297 87.9453C122.677 87.5859 122.88 87.099 122.906 86.4844C122.974 84.8073 122.534 83.9661 121.586 83.9609ZM136.312 83.1172C135.766 85.1589 135.216 87.013 134.664 88.6797C134.508 89.1484 134.253 89.6302 133.898 90.125C133.648 90.4688 133.315 90.638 132.898 90.6328C132.242 90.6224 131.727 89.9896 131.352 88.7344C131.211 88.2552 131.044 87.362 130.852 86.0547C130.742 86.2839 130.674 86.4375 130.648 86.5156C130.378 87.1615 129.982 88.1641 129.461 89.5234C129.383 89.7422 129.266 89.9167 129.109 90.0469C128.891 90.3958 128.565 90.5781 128.133 90.5938C127.888 90.6042 127.63 90.3854 127.359 89.9375C127.073 89.4844 126.841 88.901 126.664 88.1875C126.503 87.5417 126.253 86.1354 125.914 83.9688C125.841 83.5 125.805 83.1328 125.805 82.8672C125.805 82.5807 125.911 82.3438 126.125 82.1562C126.344 81.9635 126.604 81.8672 126.906 81.8672C127.469 81.8672 127.815 82.1458 127.945 82.7031C128.013 82.9948 128.07 83.3542 128.117 83.7812C128.18 84.3958 128.219 84.7578 128.234 84.8672C128.302 85.2734 128.406 85.9375 128.547 86.8594C128.932 85.8021 129.375 84.487 129.875 82.9141C130.089 82.237 130.49 81.8984 131.078 81.8984C131.656 81.8984 132.036 82.276 132.219 83.0312C132.349 83.5625 132.487 84.2526 132.633 85.1016C132.846 86.3359 132.977 87.0703 133.023 87.3047C133.07 87.1432 133.479 85.5599 134.25 82.5547C134.365 82.1068 134.69 81.8828 135.227 81.8828C135.523 81.8828 135.784 81.9792 136.008 82.1719C136.237 82.3646 136.352 82.6042 136.352 82.8906C136.352 82.9427 136.339 83.0182 136.312 83.1172ZM142.773 84.2812C142.258 84.2812 141.948 84.0651 141.844 83.6328C141.635 83.5964 141.422 83.5781 141.203 83.5781C139.948 83.5781 139.32 83.75 139.32 84.0938C139.32 84.2969 139.698 84.5703 140.453 84.9141C141.484 85.388 142.182 85.7578 142.547 86.0234C143.302 86.5703 143.68 87.1875 143.68 87.875C143.68 88.7708 143.263 89.4505 142.43 89.9141C141.758 90.2839 140.932 90.4688 139.953 90.4688C139.26 90.4688 138.628 90.362 138.055 90.1484C137.273 89.8568 136.883 89.4271 136.883 88.8594C136.883 88.3385 137.193 88.0781 137.812 88.0781C138.052 88.0781 138.398 88.1536 138.852 88.3047C139.305 88.4557 139.654 88.5312 139.898 88.5312C140.956 88.5312 141.487 88.3177 141.492 87.8906C141.492 87.625 141.125 87.3307 140.391 87.0078C139.318 86.5339 138.63 86.1927 138.328 85.9844C137.594 85.4688 137.227 84.8411 137.227 84.1016C137.227 83.0547 137.781 82.349 138.891 81.9844C139.542 81.7708 140.531 81.6641 141.859 81.6641C142.38 81.6641 142.766 81.7318 143.016 81.8672C143.359 82.0495 143.531 82.3854 143.531 82.875C143.531 83.8125 143.279 84.2812 142.773 84.2812ZM153.789 80.6094C153.456 80.6094 153.167 80.4974 152.922 80.2734C152.677 80.0495 152.555 79.776 152.555 79.4531C152.555 79.1302 152.677 78.8568 152.922 78.6328C153.167 78.4089 153.456 78.2969 153.789 78.2969C154.122 78.2969 154.409 78.4089 154.648 78.6328C154.893 78.8568 155.016 79.1302 155.016 79.4531C155.016 79.776 154.893 80.0495 154.648 80.2734C154.409 80.4974 154.122 80.6094 153.789 80.6094ZM154.453 86.3359C154.453 86.6328 154.461 87.1094 154.477 87.7656C154.497 88.4219 154.508 88.8984 154.508 89.1953C154.508 89.4974 154.406 89.7474 154.203 89.9453C154 90.138 153.742 90.2344 153.43 90.2344C153.117 90.2344 152.859 90.138 152.656 89.9453C152.453 89.7474 152.352 89.4974 152.352 89.1953C152.352 88.8984 152.341 88.4219 152.32 87.7656C152.305 87.1094 152.297 86.6328 152.297 86.3359C152.297 85.8724 152.323 85.2917 152.375 84.5938C152.427 83.8958 152.453 83.3151 152.453 82.8516C152.453 82.5495 152.555 82.3021 152.758 82.1094C152.961 81.9115 153.219 81.8125 153.531 81.8125C153.844 81.8125 154.102 81.9115 154.305 82.1094C154.508 82.3021 154.609 82.5495 154.609 82.8516C154.609 83.3151 154.583 83.8958 154.531 84.5938C154.479 85.2917 154.453 85.8724 154.453 86.3359ZM161.992 84.2812C161.477 84.2812 161.167 84.0651 161.062 83.6328C160.854 83.5964 160.641 83.5781 160.422 83.5781C159.167 83.5781 158.539 83.75 158.539 84.0938C158.539 84.2969 158.917 84.5703 159.672 84.9141C160.703 85.388 161.401 85.7578 161.766 86.0234C162.521 86.5703 162.898 87.1875 162.898 87.875C162.898 88.7708 162.482 89.4505 161.648 89.9141C160.977 90.2839 160.151 90.4688 159.172 90.4688C158.479 90.4688 157.846 90.362 157.273 90.1484C156.492 89.8568 156.102 89.4271 156.102 88.8594C156.102 88.3385 156.411 88.0781 157.031 88.0781C157.271 88.0781 157.617 88.1536 158.07 88.3047C158.523 88.4557 158.872 88.5312 159.117 88.5312C160.174 88.5312 160.706 88.3177 160.711 87.8906C160.711 87.625 160.344 87.3307 159.609 87.0078C158.536 86.5339 157.849 86.1927 157.547 85.9844C156.812 85.4688 156.445 84.8411 156.445 84.1016C156.445 83.0547 157 82.349 158.109 81.9844C158.76 81.7708 159.75 81.6641 161.078 81.6641C161.599 81.6641 161.984 81.7318 162.234 81.8672C162.578 82.0495 162.75 82.3854 162.75 82.875C162.75 83.8125 162.497 84.2812 161.992 84.2812ZM95.1875 104.148C95.2552 102.372 95.3359 101.146 95.4297 100.469C95.5182 99.8542 95.8568 99.5469 96.4453 99.5469C96.7526 99.5469 97 99.6458 97.1875 99.8438C97.375 100.042 97.4688 100.284 97.4688 100.57C97.4688 101.326 97.4089 102.451 97.2891 103.945C97.1745 105.44 97.1172 106.565 97.1172 107.32C97.1172 109.164 97.1771 110.398 97.2969 111.023C97.3125 111.107 97.3203 111.182 97.3203 111.25C97.3203 111.536 97.2161 111.773 97.0078 111.961C96.7995 112.143 96.5573 112.234 96.2812 112.234C95.8958 112.234 95.6094 112.062 95.4219 111.719C95.0677 111.932 94.7005 112.091 94.3203 112.195C93.9401 112.305 93.5469 112.359 93.1406 112.359C91.974 112.359 91.0052 111.987 90.2344 111.242C89.4479 110.482 89.0547 109.513 89.0547 108.336C89.0547 106.935 89.4505 105.805 90.2422 104.945C91.0339 104.081 92.0677 103.648 93.3438 103.648C93.7344 103.648 94.0833 103.69 94.3906 103.773C94.6979 103.857 94.9635 103.982 95.1875 104.148ZM95.0312 106.609C94.8594 106.281 94.6354 106.036 94.3594 105.875C94.0833 105.714 93.7552 105.633 93.375 105.633C92.6042 105.633 92.026 105.857 91.6406 106.305C91.2552 106.747 91.0625 107.414 91.0625 108.305C91.0625 108.867 91.2708 109.349 91.6875 109.75C92.1042 110.151 92.5885 110.352 93.1406 110.352C93.5417 110.352 93.8464 110.305 94.0547 110.211C94.1953 110.148 94.4349 109.982 94.7734 109.711C94.862 109.638 94.9479 109.557 95.0312 109.469C95.0208 109.219 95.0208 108.266 95.0312 106.609ZM102.812 112.359C101.568 112.359 100.549 112.062 99.7578 111.469C98.8828 110.812 98.4453 109.888 98.4453 108.695C98.4453 107.378 98.7917 106.263 99.4844 105.352C100.255 104.341 101.294 103.836 102.602 103.836C103.508 103.836 104.26 103.982 104.859 104.273C105.646 104.659 106.039 105.258 106.039 106.07C106.039 106.643 105.719 107.151 105.078 107.594C104.786 107.797 104.201 108.094 103.32 108.484L100.688 109.648C100.938 109.919 101.24 110.122 101.594 110.258C101.948 110.393 102.354 110.461 102.812 110.461C103.51 110.461 104.102 110.318 104.586 110.031C105.018 109.776 105.365 109.648 105.625 109.648C106.167 109.648 106.438 109.911 106.438 110.438C106.438 111.031 106.003 111.516 105.133 111.891C104.404 112.203 103.63 112.359 102.812 112.359ZM102.602 105.727C102.117 105.727 101.703 105.888 101.359 106.211C101.016 106.534 100.74 107.018 100.531 107.664C101.12 107.409 101.706 107.156 102.289 106.906C102.992 106.589 103.552 106.294 103.969 106.023C103.62 105.826 103.164 105.727 102.602 105.727ZM114.57 112.516C114.331 112.516 113.951 112.255 113.43 111.734C112.951 111.964 112.529 112.135 112.164 112.25C111.799 112.37 111.49 112.43 111.234 112.43C109.979 112.43 109.036 112.094 108.406 111.422C107.781 110.75 107.469 109.745 107.469 108.406C107.469 107.151 107.932 106.078 108.859 105.188C109.786 104.292 110.896 103.844 112.188 103.844C112.682 103.844 113.255 103.984 113.906 104.266C114.693 104.604 115.086 104.997 115.086 105.445C115.086 105.633 115.026 105.797 114.906 105.938C114.854 106.146 114.812 106.409 114.781 106.727C114.755 107.039 114.742 107.406 114.742 107.828C114.742 108.823 114.812 109.539 114.953 109.977C114.969 110.023 115.089 110.294 115.312 110.789C115.516 111.237 115.617 111.492 115.617 111.555C115.617 111.831 115.51 112.06 115.297 112.242C115.089 112.424 114.846 112.516 114.57 112.516ZM112.633 107.156C112.633 106.99 112.643 106.799 112.664 106.586C112.69 106.367 112.727 106.125 112.773 105.859C112.669 105.807 112.576 105.771 112.492 105.75C112.414 105.724 112.346 105.711 112.289 105.711C111.581 105.711 110.961 105.99 110.43 106.547C109.898 107.099 109.633 107.74 109.633 108.469C109.633 109.167 109.758 109.693 110.008 110.047C110.258 110.396 110.633 110.57 111.133 110.57C111.456 110.57 111.76 110.518 112.047 110.414C112.339 110.305 112.612 110.146 112.867 109.938C112.711 108.698 112.633 107.771 112.633 107.156ZM122.438 104.148C122.505 102.372 122.586 101.146 122.68 100.469C122.768 99.8542 123.107 99.5469 123.695 99.5469C124.003 99.5469 124.25 99.6458 124.438 99.8438C124.625 100.042 124.719 100.284 124.719 100.57C124.719 101.326 124.659 102.451 124.539 103.945C124.424 105.44 124.367 106.565 124.367 107.32C124.367 109.164 124.427 110.398 124.547 111.023C124.562 111.107 124.57 111.182 124.57 111.25C124.57 111.536 124.466 111.773 124.258 111.961C124.049 112.143 123.807 112.234 123.531 112.234C123.146 112.234 122.859 112.062 122.672 111.719C122.318 111.932 121.951 112.091 121.57 112.195C121.19 112.305 120.797 112.359 120.391 112.359C119.224 112.359 118.255 111.987 117.484 111.242C116.698 110.482 116.305 109.513 116.305 108.336C116.305 106.935 116.701 105.805 117.492 104.945C118.284 104.081 119.318 103.648 120.594 103.648C120.984 103.648 121.333 103.69 121.641 103.773C121.948 103.857 122.214 103.982 122.438 104.148ZM122.281 106.609C122.109 106.281 121.885 106.036 121.609 105.875C121.333 105.714 121.005 105.633 120.625 105.633C119.854 105.633 119.276 105.857 118.891 106.305C118.505 106.747 118.312 107.414 118.312 108.305C118.312 108.867 118.521 109.349 118.938 109.75C119.354 110.151 119.839 110.352 120.391 110.352C120.792 110.352 121.096 110.305 121.305 110.211C121.445 110.148 121.685 109.982 122.023 109.711C122.112 109.638 122.198 109.557 122.281 109.469C122.271 109.219 122.271 108.266 122.281 106.609Z" fill="black"/>
</svg>
